<?xml version="1.0" standalone="no"?><!DOCTYPE svg PUBLIC "-//W3C//DTD SVG 1.1//EN" "http://www.w3.org/Graphics/SVG/1.1/DTD/svg11.dtd"><svg height="1024" node-id="1" sillyvg="true" template-height="1024" template-width="1024" version="1.1" viewBox="0 0 1024 1024" width="1024" xmlns="http://www.w3.org/2000/svg" xmlns:xlink="http://www.w3.org/1999/xlink"><defs node-id="44"><linearGradient gradientUnits="objectBoundingBox" id="linearGradient-1" node-id="5" spreadMethod="pad" x1="0.5" x2="0.5" y1="1" y2="-0.0000000000000002471453"><stop offset="0" stop-color="#ffffff" stop-opacity="0.1"></stop><stop offset="0.13" stop-color="#fbfdff" stop-opacity="0.19"></stop><stop offset="0.41" stop-color="#f1f7ff" stop-opacity="0.43"></stop><stop offset="0.81" stop-color="#e1eeff" stop-opacity="0.82"></stop><stop offset="1" stop-color="#d9e9ff"></stop></linearGradient><linearGradient gradientUnits="objectBoundingBox" id="linearGradient1" node-id="58" spreadMethod="pad" x1="0" x2="1" y1="0.4995383" y2="0.4995383"><stop offset="0" stop-color="#eeeeee"></stop><stop offset="0.03" stop-color="#dddddd"></stop><stop offset="1" stop-color="#d8d8d8"></stop></linearGradient><linearGradient gradientUnits="objectBoundingBox" id="linearGradient-3" node-id="13" spreadMethod="pad" x1="0" x2="1" y1="0.4995383" y2="0.4995383"><stop offset="0" stop-color="#eeeeee"></stop><stop offset="0.03" stop-color="#dddddd"></stop><stop offset="1" stop-color="#d8d8d8"></stop></linearGradient><linearGradient gradientUnits="objectBoundingBox" id="linearGradient-4" node-id="17" spreadMethod="pad" x1="-0.0000000000000013743573" x2="1" y1="0.49949548" y2="0.49949548"><stop offset="0" stop-color="#eeeeee"></stop><stop offset="0.03" stop-color="#b4d7fe"></stop><stop offset="1" stop-color="#b0d3fa"></stop></linearGradient><linearGradient gradientUnits="objectBoundingBox" id="linearGradient-5" node-id="21" spreadMethod="pad" x1="0.5" x2="0.5" y1="0" y2="1"><stop offset="0" stop-color="#67afff"></stop><stop offset="1" stop-color="#2563eb"></stop></linearGradient><linearGradient gradientUnits="objectBoundingBox" id="linearGradient-6" node-id="24" spreadMethod="pad" x1="0.5" x2="0.5" y1="0" y2="1"><stop offset="0" stop-color="#67afff"></stop><stop offset="1" stop-color="#2563eb"></stop></linearGradient><linearGradient gradientUnits="objectBoundingBox" id="linearGradient-7" node-id="27" spreadMethod="pad" x1="0.5" x2="0.5" y1="0" y2="1"><stop offset="0" stop-color="#a0cdff"></stop><stop offset="1" stop-color="#568bff"></stop></linearGradient><filter height="128.31525" id="filter-2" node-id="11" width="477.73535" x="51.03075" y="488.12213"><feGaussianBlur color-interpolation-filters="linearRGB" in="SourceGraphic" result="result1" stdDeviation="14 14"></feGaussianBlur></filter></defs><g node-id="104"><path d="M 0.00 0.00 L 1024.00 0.00 L 1024.00 1024.00 L 0.00 1024.00 Z" fill="#ffffff" fill-rule="evenodd" group-id="1" id="矩形" node-id="32" stroke="none" target-height="1024" target-width="1024" target-x="0" target-y="0"></path><g node-id="105"><path d="M 221.50 775.40 L 221.50 337.20 L 347.10 337.20 L 347.10 224.00 L 546.50 224.00 L 546.50 391.40 L 657.20 391.40 L 657.20 775.40 L 221.50 775.40 Z M 706.50 337.20 L 802.50 337.20 L 802.50 775.40 L 706.50 775.40 L 706.50 337.20 Z" fill="url(#linearGradient-1)" fill-rule="nonzero" group-id="1,2" id="形状结合备份-11" node-id="34" stroke="none" target-height="551.4" target-width="581" target-x="221.5" target-y="224"></path><g node-id="106"><path d="M 708.60 776.30 L 708.30 777.50 L 707.30 778.80 L 705.30 780.30 L 701.80 782.00 L 697.20 783.70 L 690.80 785.50 L 682.20 787.30 L 668.70 789.60 L 650.90 791.90 L 631.80 793.80 L 610.00 795.50 L 587.30 796.70 L 537.70 798.20 L 511.60 798.40 L 485.60 798.20 L 436.00 796.70 L 413.30 795.50 L 391.40 793.80 L 372.40 791.90 L 354.60 789.60 L 341.00 787.30 L 332.40 785.50 L 326.00 783.70 L 321.50 782.00 L 318.00 780.30 L 316.00 778.80 L 315.00 777.50 L 314.70 776.30 L 315.00 775.10 L 316.00 773.70 L 318.00 772.20 L 321.50 770.50 L 326.00 768.90 L 332.40 767.10 L 341.00 765.20 L 354.60 762.90 L 372.40 760.60 L 391.40 758.70 L 413.30 757.10 L 436.00 755.80 L 485.60 754.30 L 511.60 754.10 L 537.70 754.30 L 587.30 755.80 L 610.00 757.10 L 631.80 758.70 L 650.90 760.60 L 668.70 762.90 L 682.20 765.20 L 690.80 767.10 L 697.20 768.90 L 701.80 770.50 L 705.30 772.20 L 707.30 773.70 L 708.30 775.10 L 708.60 776.30 Z" fill="#c2d5ff" fill-rule="evenodd" filter="url(#filter-2)" group-id="1,2,3" id="椭圆形备份-10" node-id="35" stroke="none" target-height="44.30005" target-width="393.89996" target-x="314.7" target-y="754.1"></path></g><g node-id="107"><path d="M 561.20 701.50 L 529.10 684.00 L 523.40 679.50 L 519.40 676.90 L 551.50 694.40 L 555.50 697.00 L 561.20 701.50 Z" fill="url(#linearGradient1)" fill-rule="nonzero" group-id="1,2,4" id="路径" node-id="37" stroke="none" target-height="24.599976" target-width="41.799988" target-x="519.4" target-y="676.9"></path><path d="M 561.20 701.50 L 529.10 684.00 L 523.40 679.50 L 519.40 676.90 L 551.50 694.40 L 555.50 697.00 L 561.20 701.50" fill="url(#linearGradient-3)" fill-rule="nonzero" group-id="1,2,4" id="路径" node-id="38" stroke="none" target-height="24.599976" target-width="41.799988" target-x="519.4" target-y="676.9"></path><path d="M 627.70 529.20 L 595.70 512.00 L 600.20 513.90 L 606.10 515.30 L 610.40 516.90 L 642.50 534.20 L 638.20 532.60 L 632.20 531.10 L 627.70 529.20 Z" fill="url(#linearGradient-4)" fill-rule="nonzero" group-id="1,2,4" id="路径" node-id="39" stroke="none" target-height="22.200012" target-width="46.799988" target-x="595.7" target-y="512"></path><path d="M 572.50 598.50 L 574.30 594.10 L 577.20 583.30 L 578.30 575.80 L 578.50 569.50 L 578.20 564.40 L 577.60 559.60 L 576.70 555.00 L 575.30 550.60 L 571.60 542.40 L 569.30 538.70 L 566.70 535.30 L 563.70 532.10 L 560.60 529.30 L 557.20 526.70 L 521.50 507.10 L 528.50 511.80 L 531.70 514.70 L 537.20 521.30 L 541.50 528.90 L 543.30 533.20 L 544.60 537.50 L 545.60 542.10 L 546.20 547.00 L 546.40 556.30 L 545.40 564.60 L 544.00 570.60 L 542.20 576.40 L 540.10 581.50 L 537.70 586.40 L 535.80 589.80 L 531.00 596.70 L 526.30 601.90 L 523.00 605.10 L 517.10 609.70 L 512.70 612.40 L 508.10 614.90 L 503.80 616.70 L 496.80 618.80 L 492.20 619.70 L 487.60 620.10 L 481.50 620.10 L 473.00 618.90 L 467.80 617.10 L 462.80 614.80 L 494.90 632.20 L 501.10 635.00 L 505.10 636.30 L 513.60 637.50 L 519.70 637.50 L 524.30 637.10 L 532.50 635.30 L 540.30 632.40 L 548.60 627.70 L 552.20 624.90 L 558.30 619.40 L 562.90 614.10 L 567.70 607.30 L 572.50 598.50 Z" fill="url(#linearGradient-5)" fill-rule="evenodd" group-id="1,2,4" id="路径" node-id="40" stroke="none" target-height="130.4" target-width="115.70001" target-x="462.8" target-y="507.1"></path><path d="M 535.30 423.40 L 537.10 423.70 L 541.80 425.30 L 553.00 430.10 L 588.30 449.50 L 582.50 446.60 L 574.60 443.20 L 567.20 440.60 L 565.30 440.60 L 564.10 441.00 L 562.10 442.50 L 556.60 449.30 L 551.50 454.60 L 545.80 459.10 L 542.10 461.50 L 538.40 463.40 L 531.50 466.00 L 525.60 467.30 L 522.00 467.70 L 514.80 467.40 L 510.20 466.60 L 506.90 465.50 L 503.10 463.90 L 483.00 452.90 L 448.10 480.60 L 416.60 463.40 L 448.10 480.60 L 446.10 483.00 L 445.30 486.40 L 445.30 488.50 L 447.70 504.00 L 447.80 513.10 L 447.30 517.60 L 445.90 524.10 L 443.90 530.40 L 440.20 538.60 L 436.60 544.50 L 430.50 551.90 L 425.40 556.60 L 417.80 561.70 L 409.90 565.50 L 407.30 567.80 L 406.10 569.60 L 405.90 590.80 L 406.10 620.30 L 423.90 629.20 L 427.50 631.60 L 430.80 634.40 L 433.70 637.60 L 436.40 641.10 L 438.60 644.80 L 442.50 653.20 L 443.90 657.90 L 444.90 662.70 L 445.40 667.70 L 445.50 672.70 L 445.20 677.90 L 444.50 683.50 L 443.30 689.30 L 444.90 690.10 L 448.80 694.90 L 455.70 699.70 L 462.80 704.00 L 445.80 695.30 L 449.70 698.30 L 460.30 704.00 L 428.80 688.30 L 423.70 685.40 L 414.20 678.60 L 411.10 674.50 L 415.60 676.90 L 411.00 674.20 L 413.10 662.50 L 413.30 651.90 L 412.80 646.80 L 411.80 641.80 L 410.40 636.90 L 406.40 628.20 L 404.00 624.40 L 401.30 621.00 L 377.30 607.90 L 376.00 606.90 L 375.10 605.60 L 374.50 604.00 L 374.20 571.50 L 374.40 552.30 L 375.60 550.50 L 378.20 548.20 L 386.30 543.90 L 396.60 536.80 L 401.00 532.20 L 403.80 528.80 L 408.60 521.30 L 410.50 517.30 L 412.20 513.10 L 414.10 506.90 L 415.50 500.50 L 416.20 491.40 L 416.00 486.80 L 415.20 480.00 L 413.70 471.10 L 413.70 468.90 L 414.50 465.70 L 417.10 462.80 L 452.00 435.00 L 453.90 433.80 L 455.50 433.30 L 457.10 433.30 L 488.40 450.40 L 457.90 433.70 L 488.70 450.40 L 493.80 450.10 L 500.10 448.80 L 504.20 447.40 L 510.70 444.20 L 514.00 442.10 L 517.50 439.60 L 522.40 435.20 L 525.50 431.90 L 531.20 424.80 L 532.90 423.70 L 535.30 423.40 Z" fill="url(#linearGradient-6)" fill-rule="evenodd" group-id="1,2,4" id="形状结合" node-id="41" stroke="none" target-height="280.6" target-width="214.09998" target-x="374.2" target-y="423.4"></path><path d="M 645.60 535.10 L 647.20 551.80 L 647.40 560.30 L 647.10 568.70 L 646.20 577.30 L 644.60 586.00 L 643.80 588.10 L 641.20 591.50 L 630.60 598.10 L 626.60 601.30 L 622.80 604.80 L 619.40 608.70 L 616.20 612.80 L 613.40 617.10 L 611.00 621.70 L 608.90 626.40 L 607.20 631.30 L 605.90 636.30 L 605.00 641.30 L 604.50 646.50 L 604.50 651.60 L 605.00 656.70 L 606.30 663.70 L 606.30 665.50 L 605.30 669.10 L 604.30 670.60 L 597.50 677.60 L 585.80 687.90 L 573.10 696.90 L 564.50 701.90 L 562.50 702.50 L 559.60 702.10 L 558.30 701.40 L 554.20 697.90 L 551.00 695.70 L 544.10 692.40 L 536.70 690.50 L 529.00 690.20 L 525.10 690.60 L 520.40 691.60 L 515.90 693.00 L 511.50 694.80 L 507.30 697.00 L 503.40 699.60 L 499.70 702.50 L 496.20 705.80 L 491.80 711.00 L 490.30 712.20 L 486.80 713.80 L 484.80 713.80 L 482.80 713.40 L 476.20 711.40 L 469.80 708.90 L 463.60 706.00 L 457.60 702.70 L 451.80 699.00 L 446.30 694.80 L 443.30 690.60 L 444.50 684.60 L 445.30 678.90 L 445.60 673.60 L 445.60 668.50 L 445.00 663.40 L 444.10 658.40 L 442.60 653.60 L 440.60 648.90 L 438.00 644.10 L 435.10 639.80 L 431.90 636.20 L 428.40 633.00 L 425.30 630.80 L 422.00 629.00 L 418.40 627.50 L 414.60 626.40 L 408.40 625.20 L 405.70 623.70 L 404.80 622.60 L 404.20 621.00 L 404.00 618.90 L 403.70 594.20 L 403.80 569.40 L 404.10 568.50 L 405.70 566.30 L 408.20 564.30 L 415.20 560.70 L 420.50 557.30 L 425.30 553.60 L 429.50 549.40 L 433.30 544.90 L 436.50 540.10 L 439.30 534.80 L 441.70 529.10 L 443.60 523.00 L 445.10 516.40 L 445.60 511.90 L 445.50 502.80 L 443.20 487.10 L 443.40 483.40 L 444.00 481.90 L 445.00 480.40 L 446.60 478.80 L 483.10 449.90 L 485.00 449.20 L 487.80 449.80 L 488.90 450.50 L 493.10 454.90 L 496.40 457.70 L 500.10 460.10 L 504.00 462.10 L 508.00 463.60 L 512.30 464.70 L 516.60 465.40 L 521.00 465.50 L 525.50 465.10 L 530.20 464.20 L 534.90 462.60 L 539.60 460.60 L 544.30 457.90 L 548.70 454.70 L 552.90 451.10 L 557.00 446.70 L 562.90 439.50 L 565.60 438.20 L 568.80 438.60 L 575.50 440.90 L 582.00 443.70 L 588.30 446.80 L 594.40 450.40 L 600.30 454.40 L 605.90 458.80 L 607.10 460.20 L 607.70 461.50 L 607.70 464.50 L 605.50 473.80 L 604.80 480.00 L 604.80 486.00 L 605.40 492.00 L 606.50 497.70 L 608.20 503.10 L 609.90 507.10 L 614.10 514.20 L 619.40 520.40 L 622.50 523.00 L 625.80 525.30 L 629.40 527.30 L 632.10 528.40 L 640.80 530.70 L 643.80 532.50 L 645.00 533.80 L 645.60 535.10 Z M 524.90 634.80 L 533.70 632.80 L 542.00 629.30 L 547.10 626.30 L 552.00 622.80 L 556.60 618.80 L 560.80 614.30 L 564.60 609.50 L 568.00 604.20 L 570.90 598.70 L 573.40 592.80 L 575.40 586.70 L 576.80 580.40 L 577.70 573.90 L 578.00 567.30 L 577.60 561.30 L 576.70 555.70 L 575.30 550.60 L 573.50 545.90 L 571.20 541.30 L 568.60 537.10 L 565.60 533.40 L 562.20 530.00 L 558.50 527.00 L 554.50 524.40 L 550.10 522.10 L 545.50 520.30 L 540.70 519.00 L 535.60 518.00 L 530.30 517.50 L 524.60 517.50 L 518.80 518.50 L 514.60 519.70 L 506.40 523.20 L 501.30 526.20 L 496.50 529.80 L 491.90 533.80 L 487.70 538.30 L 483.90 543.10 L 480.50 548.40 L 477.50 553.80 L 475.10 559.50 L 473.10 565.40 L 471.70 571.40 L 470.80 577.50 L 470.60 583.70 L 470.90 589.80 L 471.80 595.60 L 473.10 601.00 L 474.90 606.00 L 477.20 610.90 L 480.00 615.40 L 483.00 619.40 L 486.50 623.10 L 490.40 626.30 L 494.50 629.10 L 498.90 631.40 L 503.70 633.20 L 508.60 634.50 L 513.70 635.20 L 519.10 635.30 L 524.80 634.80" fill="url(#linearGradient-7)" fill-rule="evenodd" group-id="1,2,4" id="形状" node-id="42" stroke="none" target-height="275.59998" target-width="243.70001" target-x="403.7" target-y="438.2"></path></g></g></g></svg>