<?xml version="1.0" standalone="no"?><!DOCTYPE svg PUBLIC "-//W3C//DTD SVG 1.1//EN" "http://www.w3.org/Graphics/SVG/1.1/DTD/svg11.dtd"><svg height="600" node-id="1" sillyvg="true" template-height="600" template-width="600" version="1.1" viewBox="0 0 600 600" width="600" xmlns="http://www.w3.org/2000/svg" xmlns:xlink="http://www.w3.org/1999/xlink"><defs node-id="125"></defs><g node-id="127"><g node-id="147"><path d="M 202.70 491.20 L 190.30 492.00 L 184.90 492.70 L 178.40 494.00 L 177.00 494.60 L 176.40 495.50 L 176.90 496.00 L 180.30 497.30 L 180.50 497.60 L 180.10 498.00 L 175.40 499.30 L 158.60 503.10 L 154.40 504.50 L 151.20 506.00 L 149.30 507.20 L 148.20 508.50 L 147.60 509.80 L 147.70 510.70 L 148.20 511.60 L 149.50 512.60 L 151.70 513.50 L 154.60 514.40 L 163.90 516.00 L 182.00 517.10 L 203.40 517.00 L 214.60 516.50 L 236.60 514.60 L 246.50 513.30 L 263.10 510.40 L 297.60 502.70 L 306.90 501.40 L 318.60 500.40 L 330.80 498.00 L 336.50 496.40 L 341.80 494.50 L 345.90 492.60 L 348.50 491.10 L 351.40 488.60 L 352.10 486.70 L 351.10 484.90 L 349.70 484.10 L 347.30 483.20 L 343.20 482.30 L 331.30 481.30 L 315.50 481.30 L 288.90 482.60 L 272.10 484.30 L 258.30 486.50 L 248.00 488.90 L 234.80 490.50 L 215.50 491.30 L 202.70 491.20 Z" fill="#99adf9" fill-rule="nonzero" group-id="1,21" id="XMLID_373_" node-id="4" stroke="none" target-height="35.799988" target-width="204.5" target-x="147.6" target-y="481.3"></path><path d="M 219.20 494.10 L 206.20 495.20 L 200.90 496.30 L 200.00 497.20 L 202.90 498.60 L 203.00 498.80 L 202.70 499.10 L 187.00 502.80 L 181.60 504.90 L 179.40 506.80 L 179.00 507.70 L 179.10 508.60 L 180.00 509.50 L 181.90 510.40 L 185.50 511.30 L 190.90 512.20 L 204.00 513.00 L 219.60 513.00 L 235.90 512.00 L 243.90 511.30 L 259.10 509.00 L 286.50 502.90 L 294.30 501.70 L 304.60 500.80 L 309.90 499.80 L 319.70 496.90 L 323.80 495.10 L 326.40 493.40 L 327.70 492.10 L 328.10 491.10 L 327.80 490.10 L 327.00 489.30 L 325.10 488.50 L 321.60 487.70 L 317.10 487.20 L 304.00 486.90 L 288.60 487.50 L 273.20 488.80 L 260.50 490.60 L 252.20 492.50 L 242.60 493.70 L 228.50 494.20 L 219.20 494.10 Z" fill="#8ea6f4" fill-rule="nonzero" group-id="1,21" id="XMLID_26_" node-id="5" stroke="none" target-height="26.100006" target-width="149.1" target-x="179" target-y="486.9"></path></g></g><g node-id="128"><path d="M 361.20 489.20 L 518.80 489.20 L 465.00 504.50 Z" fill="#e1eaf6" fill-rule="nonzero" group-id="2" id="XMLID_346_" node-id="7" stroke="none" target-height="15.299988" target-width="157.59998" target-x="361.2" target-y="489.2"></path></g><g node-id="129"><g node-id="148"><path d="M 357.50 109.80 L 354.50 105.90 L 352.60 104.40 L 348.40 102.30 L 343.80 101.70 L 341.70 102.00 L 339.60 102.60 L 337.70 103.70 L 336.10 105.20 L 334.60 107.30 L 333.60 109.60 L 332.90 112.60 L 332.70 116.30 L 333.00 122.60 L 333.80 127.30 L 334.80 130.80 L 336.00 133.30 L 338.60 136.90 L 340.20 138.00 L 342.50 139.10 L 345.10 139.80 L 348.00 140.10 L 349.70 139.90 L 352.80 138.50 L 354.40 137.30 L 356.00 135.20 L 357.50 132.80 L 358.80 129.80 L 359.60 126.70 L 360.10 123.40 L 360.20 119.90 L 359.80 116.40 L 358.90 113.10 L 357.50 109.80 Z" fill="#1c3177" fill-rule="nonzero" group-id="3,22" id="XMLID_298_" node-id="10" stroke="none" target-height="38.40001" target-width="27.5" target-x="332.7" target-y="101.7"></path><path d="M 337.00 105.60 L 334.60 109.00 L 333.90 110.90 L 333.80 112.50 L 334.10 113.30 L 334.70 113.90 L 335.80 114.30 L 336.90 114.10 L 338.20 113.30 L 339.50 112.00 L 341.90 108.70 L 342.80 107.10 L 343.40 104.80 L 342.90 103.80 L 342.20 103.30 L 341.20 103.10 L 338.70 104.10 L 337.00 105.60 Z" fill="#485b95" fill-rule="nonzero" group-id="3,22" id="XMLID_364_" node-id="11" stroke="none" target-height="11.200005" target-width="9.600006" target-x="333.8" target-y="103.1"></path><path d="M 326.20 112.40 L 323.90 113.20 L 321.90 114.50 L 320.20 116.40 L 318.80 118.60 L 317.70 121.10 L 316.90 124.00 L 316.30 130.10 L 317.20 136.40 L 318.10 139.30 L 319.50 142.10 L 321.20 144.60 L 323.00 146.30 L 324.70 147.50 L 326.70 148.30 L 328.60 148.60 L 332.20 148.10 L 333.90 147.40 L 336.70 145.20 L 338.50 142.40 L 339.00 140.20 L 339.10 136.70 L 338.00 128.60 L 336.80 124.30 L 334.10 117.80 L 331.40 114.20 L 329.70 112.90 L 328.00 112.40 L 326.20 112.40 Z" fill="#1c3177" fill-rule="nonzero" group-id="3,22" id="XMLID_299_" node-id="12" stroke="none" target-height="36.200005" target-width="22.800018" target-x="316.3" target-y="112.4"></path><path d="M 320.80 117.30 L 319.10 120.50 L 318.70 122.20 L 318.70 123.60 L 319.60 124.80 L 320.60 125.00 L 321.50 124.70 L 322.60 123.90 L 325.40 119.50 L 326.00 118.10 L 326.30 116.00 L 325.80 115.20 L 325.20 114.80 L 324.20 114.70 L 322.20 115.80 L 320.80 117.30 Z" fill="#485b95" fill-rule="nonzero" group-id="3,22" id="XMLID_369_" node-id="13" stroke="none" target-height="10.300003" target-width="7.5999756" target-x="318.7" target-y="114.7"></path></g></g><g node-id="130"><g node-id="149"><g node-id="164"><g node-id="179"><path d="M 322.00 163.50 L 320.10 164.30 L 318.00 166.40 L 317.10 168.30 L 316.70 170.50 L 316.70 173.60 L 317.30 176.80 L 318.30 179.10 L 320.80 182.50 L 324.20 184.60 L 322.40 174.20 L 321.90 167.00 L 322.00 163.50 Z" fill="#f48b77" fill-rule="nonzero" group-id="4,23,38,53" id="XMLID_296_" node-id="18" stroke="none" target-height="21.100006" target-width="7.5" target-x="316.7" target-y="163.5"></path><path d="M 343.10 223.50 L 345.60 223.90 L 347.40 223.70 L 349.10 223.10 L 351.10 221.60 L 357.20 202.40 L 341.70 201.30 L 339.70 219.40 L 340.50 221.70 L 341.50 222.70 L 343.10 223.50 Z" fill="#f7a491" fill-rule="nonzero" group-id="4,23,38,53" id="XMLID_295_" node-id="19" stroke="none" target-height="22.59999" target-width="17.5" target-x="339.7" target-y="201.3"></path><path d="M 341.10 206.60 L 343.90 209.50 L 346.10 211.20 L 348.50 212.60 L 353.30 214.70 L 357.20 202.40 L 341.70 201.30 L 341.10 206.60 Z" fill="#f48b77" fill-rule="nonzero" group-id="4,23,38,53" id="XMLID_294_" node-id="20" stroke="none" target-height="13.399994" target-width="16.100006" target-x="341.1" target-y="201.3"></path><g node-id="180"><path d="M 320.50 167.40 L 321.10 162.30 L 322.10 157.60 L 323.50 153.20 L 325.50 148.90 L 327.80 145.10 L 330.50 141.80 L 333.60 138.70 L 336.90 136.30 L 340.40 134.30 L 343.20 133.20 L 349.10 132.00 L 352.20 131.90 L 355.30 132.30 L 361.10 134.00 L 363.80 135.30 L 367.20 137.60 L 370.20 140.30 L 373.00 143.60 L 375.40 147.20 L 377.40 151.20 L 379.00 155.60 L 380.00 160.10 L 380.60 164.90 L 380.70 170.00 L 380.20 175.10 L 379.20 179.80 L 377.70 184.20 L 375.70 188.40 L 373.40 192.20 L 370.70 195.60 L 367.70 198.60 L 364.40 201.10 L 360.80 203.10 L 358.00 204.20 L 352.10 205.40 L 349.00 205.40 L 345.90 205.10 L 340.10 203.40 L 337.40 202.00 L 334.10 199.80 L 331.00 197.00 L 328.20 193.70 L 325.80 190.10 L 323.90 186.20 L 322.30 181.80 L 321.20 177.20 L 320.60 172.40 L 320.50 167.40 Z" fill="#f7a491" fill-rule="nonzero" group-id="4,23,38,53,54" id="XMLID_292_" node-id="21" stroke="none" target-height="73.5" target-width="60.200012" target-x="320.5" target-y="131.9"></path></g><path d="M 340.20 203.40 L 346.00 205.10 L 352.20 205.30 L 358.10 204.10 L 360.90 203.00 L 364.50 201.10 L 367.80 198.60 L 370.80 195.60 L 373.50 192.20 L 375.80 188.40 L 377.80 184.20 L 379.30 179.80 L 380.30 175.10 L 380.80 170.00 L 380.70 165.00 L 380.20 160.20 L 379.10 155.70 L 377.60 151.40 L 375.60 147.40 L 373.30 143.80 L 370.60 140.60 L 367.60 137.80 L 364.30 135.50 L 360.70 133.80 L 356.90 132.60 L 352.90 132.00 L 358.50 135.30 L 361.10 137.50 L 363.50 140.00 L 366.20 143.70 L 368.50 147.80 L 370.40 152.50 L 371.70 157.30 L 372.40 162.50 L 372.50 168.00 L 372.00 173.10 L 371.00 177.80 L 369.50 182.20 L 367.50 186.40 L 365.20 190.20 L 362.50 193.60 L 359.50 196.60 L 356.20 199.10 L 352.60 201.00 L 349.80 202.10 L 343.90 203.30 L 340.20 203.40 Z" fill="#f48b77" fill-rule="nonzero" group-id="4,23,38,53" id="XMLID_291_" node-id="22" stroke="none" target-height="73.3" target-width="40.599976" target-x="340.2" target-y="132"></path><path d="M 374.10 185.30 L 375.50 180.70 L 376.20 177.10 L 376.60 173.20 L 376.20 165.10 L 374.50 157.90 L 372.70 153.10 L 370.80 149.40 L 369.00 146.50 L 366.70 144.00 L 364.20 142.10 L 361.20 140.70 L 358.00 139.70 L 354.10 139.10 L 349.30 138.80 L 344.00 139.00 L 339.80 139.60 L 335.90 140.70 L 330.60 143.20 L 327.80 145.20 L 329.90 141.90 L 331.80 139.50 L 334.20 137.20 L 337.60 134.60 L 343.00 131.60 L 346.40 130.20 L 350.00 129.20 L 353.70 128.60 L 357.70 128.50 L 361.60 128.80 L 365.50 129.60 L 369.40 130.90 L 373.10 132.70 L 376.60 135.00 L 379.90 137.90 L 382.10 140.40 L 385.90 146.40 L 387.50 150.10 L 389.20 155.50 L 390.20 160.10 L 390.60 164.20 L 390.40 168.30 L 389.70 171.80 L 388.60 174.90 L 387.00 177.70 L 385.10 180.00 L 382.70 181.90 L 380.10 183.50 L 377.30 184.60 L 374.10 185.30 Z" fill="#1c3177" fill-rule="nonzero" group-id="4,23,38,53" id="XMLID_281_" node-id="23" stroke="none" target-height="56.800003" target-width="62.80002" target-x="327.8" target-y="128.5"></path><path d="M 343.00 160.10 L 344.30 160.80 L 345.70 164.00 L 346.10 166.90 L 346.20 170.00 L 345.90 173.50 L 344.50 177.40 L 343.50 178.50 L 341.10 179.90 L 338.50 179.60 L 336.20 177.90 L 335.10 175.50 L 335.10 170.80 L 335.70 167.80 L 336.80 164.90 L 338.40 162.50 L 339.80 161.30 L 341.30 160.50 L 343.00 160.10 Z" fill="#f26f59" fill-rule="nonzero" group-id="4,23,38,53" id="XMLID_272_" node-id="24" stroke="none" target-height="19.799988" target-width="11.100006" target-x="335.1" target-y="160.1"></path><path d="M 381.10 167.90 L 385.30 169.90 L 388.60 172.60 L 389.80 174.50 L 390.60 176.80 L 390.80 178.50 L 390.20 182.60 L 389.30 184.60 L 387.10 187.40 L 384.90 188.70 L 382.60 189.50 L 380.20 189.90 L 377.90 189.90 L 372.80 189.10 L 375.90 183.80 L 379.60 175.80 L 381.00 170.30 L 381.10 167.90 Z" fill="#f48b77" fill-rule="nonzero" group-id="4,23,38,53" id="XMLID_168_" node-id="25" stroke="none" target-height="22" target-width="18" target-x="372.8" target-y="167.9"></path><path d="M 382.70 173.20 L 384.80 174.10 L 387.10 176.10 L 387.80 177.50 L 388.10 179.90 L 387.20 182.90 L 385.50 184.60 L 383.90 185.30 L 382.20 185.60 L 378.00 185.20 L 380.50 180.80 L 382.10 176.80 L 382.70 173.20 Z" fill="#f26f59" fill-rule="nonzero" group-id="4,23,38,53" id="XMLID_166_" node-id="26" stroke="none" target-height="12.400009" target-width="10.100006" target-x="378" target-y="173.2"></path></g></g></g></g><g node-id="131"><g node-id="150"><g node-id="165"><path d="M 327.10 149.50 L 326.40 149.80 L 325.90 150.70 L 325.90 151.30 L 327.10 153.10 L 330.50 157.00 L 335.50 161.30 L 336.10 161.30 L 337.00 160.80 L 337.30 160.30 L 337.10 159.30 L 328.80 150.40 L 328.00 149.70 L 327.10 149.50 Z" fill="#283575" fill-rule="nonzero" group-id="5,24,39" id="XMLID_124_" node-id="30" stroke="none" target-height="11.800003" target-width="11.399994" target-x="325.9" target-y="149.5"></path></g><path d="M 336.00 149.80 L 336.90 150.70 L 336.80 151.80 L 334.10 155.10 L 329.40 158.80 L 326.10 160.60 L 325.50 160.60 L 324.70 159.90 L 324.50 159.40 L 324.80 158.50 L 335.10 149.90 L 336.00 149.80 Z" fill="#283575" fill-rule="nonzero" group-id="5,24,40" id="XMLID_108_" node-id="32" stroke="none" target-height="10.800003" target-width="12.399994" target-x="324.5" target-y="149.8"></path></g></g><g node-id="132"><g node-id="151"><g node-id="167"><path d="M 352.50 150.60 L 351.70 150.90 L 351.10 151.90 L 351.20 152.60 L 352.50 154.70 L 356.20 159.10 L 360.10 162.90 L 361.70 164.20 L 362.40 164.30 L 363.40 163.70 L 363.80 162.50 L 363.50 161.90 L 353.50 150.80 L 352.50 150.60 Z" fill="#283575" fill-rule="nonzero" group-id="6,25,41" id="XMLID_145_" node-id="36" stroke="none" target-height="13.699997" target-width="12.699982" target-x="351.1" target-y="150.6"></path></g><path d="M 362.50 151.20 L 363.60 152.30 L 363.50 153.50 L 360.30 157.20 L 354.90 161.30 L 351.10 163.10 L 350.40 163.00 L 349.50 162.30 L 349.30 161.70 L 349.60 160.70 L 355.40 156.40 L 361.50 151.30 L 362.50 151.20 Z" fill="#283575" fill-rule="nonzero" group-id="6,25,42" id="XMLID_304_" node-id="38" stroke="none" target-height="11.900009" target-width="14.300018" target-x="349.3" target-y="151.2"></path></g></g><g node-id="133"><g node-id="152"><path d="M 336.00 194.20 L 342.30 195.40 L 349.00 197.90 L 351.60 197.60 L 352.60 196.80 L 353.30 195.50 L 353.40 194.30 L 352.60 191.30 L 351.60 189.50 L 349.50 187.20 L 347.00 185.20 L 345.10 184.10 L 341.30 183.00 L 339.10 183.10 L 337.40 183.60 L 335.90 184.60 L 334.00 187.10 L 333.50 188.40 L 333.50 190.20 L 333.90 191.80 L 334.80 193.20 L 336.00 194.20 Z" fill="#f26f59" fill-rule="nonzero" group-id="7,26" id="XMLID_100_" node-id="41" stroke="none" target-height="14.899994" target-width="19.899994" target-x="333.5" target-y="183"></path><path d="M 336.00 194.20 L 342.30 195.40 L 349.00 197.90 L 351.60 197.60 L 352.60 196.80 L 353.30 195.50 L 351.30 193.40 L 348.90 191.50 L 347.10 190.50 L 343.50 189.50 L 341.60 189.60 L 338.60 190.80 L 337.40 191.80 L 336.00 194.20 Z" fill="#ef6ea5" fill-rule="nonzero" group-id="7,26" id="XMLID_94_" node-id="42" stroke="none" target-height="8.399994" target-width="17.299988" target-x="336" target-y="189.5"></path></g></g><g node-id="134"><g node-id="153"><path d="M 474.30 364.50 L 492.70 492.10 L 466.50 492.10 L 464.30 473.90 L 444.60 473.60 L 445.40 489.80 L 419.90 489.80 L 411.40 368.70 Z" fill="#ea62a3" fill-rule="nonzero" group-id="8,27" id="XMLID_339_" node-id="45" stroke="none" target-height="127.600006" target-width="81.30002" target-x="411.4" target-y="364.5"></path><path d="M 411.40 368.70 L 375.40 488.70 L 394.40 490.40 L 399.70 470.80 L 419.60 471.60 L 416.50 491.50 L 445.40 494.30 L 474.30 364.50 Z" fill="#f396bf" fill-rule="nonzero" group-id="8,27" id="XMLID_337_" node-id="46" stroke="none" target-height="129.79999" target-width="98.899994" target-x="375.4" target-y="364.5"></path><path d="M 398.40 441.20 L 432.10 389.00 L 446.40 443.90 Z" fill="#8ea6f4" fill-rule="nonzero" group-id="8,27" id="XMLID_343_" node-id="47" stroke="none" target-height="54.899994" target-width="48" target-x="398.4" target-y="389"></path><path d="M 427.60 408.30 L 420.10 417.60 L 416.60 424.00 L 415.70 427.00 L 415.60 428.90 L 415.80 430.60 L 416.50 432.10 L 417.50 433.40 L 420.30 435.20 L 423.50 435.60 L 425.20 435.30 L 426.80 434.50 L 428.30 433.30 L 429.70 431.40 L 430.60 429.50 L 431.60 425.50 L 431.60 422.40 L 431.30 419.30 L 429.90 413.80 L 427.60 408.30 Z" fill="#e1eaf6" fill-rule="nonzero" group-id="8,27" id="XMLID_349_" node-id="48" stroke="none" target-height="27.300018" target-width="16" target-x="415.6" target-y="408.3"></path></g></g><g node-id="135"><path d="M 115.70 210.70 L 120.50 237.90 L 124.20 254.80 L 128.80 272.90 L 134.40 290.60 L 138.30 300.70 L 142.70 310.30 L 147.40 319.60 L 156.70 335.70 L 160.80 342.00 L 169.70 354.90 L 158.10 343.50 L 146.50 330.50 L 140.20 322.80 L 129.50 307.80 L 121.60 294.70 L 116.30 284.30 L 111.70 273.70 L 107.40 263.10 L 100.80 243.50 L 98.40 235.40 L 93.90 218.30 L 115.70 210.70 Z" fill="#e1eaf6" fill-rule="nonzero" group-id="9" id="XMLID_333_" node-id="50" stroke="none" target-height="144.2" target-width="75.799995" target-x="93.9" target-y="210.7"></path></g><g node-id="136"><g node-id="154"><path d="M 167.20 380.60 L 173.80 393.70 L 177.30 399.90 L 187.20 414.70 L 197.90 427.90 L 208.00 438.10 L 213.60 443.00 L 219.50 447.50 L 225.80 451.70 L 235.90 457.10 L 241.20 459.40 L 246.80 461.30 L 252.50 462.90 L 258.30 464.00 L 264.50 464.80 L 270.90 465.10 L 277.40 464.90 L 283.40 464.30 L 289.10 463.30 L 299.80 460.30 L 304.90 458.30 L 314.10 453.50 L 319.80 449.70 L 325.10 445.70 L 329.90 441.40 L 338.50 432.10 L 342.20 427.40 L 347.30 420.20 L 351.40 413.50 L 354.90 406.90 L 359.80 396.10 L 362.20 389.40 L 361.10 397.20 L 358.40 409.90 L 356.20 417.80 L 353.30 426.00 L 349.60 434.90 L 343.40 446.70 L 339.60 452.70 L 335.50 458.40 L 330.80 463.90 L 325.50 469.30 L 316.70 476.50 L 311.80 479.70 L 306.50 482.80 L 301.10 485.40 L 295.20 487.70 L 288.80 489.70 L 282.00 491.40 L 275.20 492.50 L 267.80 493.20 L 259.80 493.40 L 251.20 493.10 L 243.50 492.30 L 236.40 491.10 L 230.00 489.50 L 224.10 487.60 L 218.30 485.20 L 212.90 482.50 L 208.00 479.60 L 203.50 476.40 L 199.30 472.80 L 195.40 469.10 L 188.60 461.20 L 184.70 455.50 L 181.30 449.60 L 178.40 443.60 L 175.80 437.50 L 172.00 425.50 L 169.90 416.50 L 168.60 408.40 L 167.70 400.50 L 167.00 388.20 L 167.20 380.60 Z" fill="#e1eaf6" fill-rule="nonzero" group-id="10,28" id="XMLID_331_" node-id="53" stroke="none" target-height="112.79999" target-width="195.20001" target-x="167" target-y="380.6"></path><path d="M 140.30 383.50 L 142.60 390.60 L 147.50 402.10 L 151.20 409.40 L 155.50 416.90 L 161.00 425.10 L 165.00 430.50 L 174.70 441.60 L 180.10 446.90 L 186.20 452.00 L 192.90 457.10 L 201.30 462.80 L 216.50 472.00 L 227.60 477.80 L 237.20 482.30 L 246.40 486.10 L 260.30 490.90 L 268.40 493.10 L 260.50 493.60 L 247.50 493.00 L 239.10 492.00 L 227.20 489.50 L 214.00 485.40 L 207.20 482.50 L 200.20 479.10 L 195.80 476.50 L 187.40 470.30 L 183.50 466.70 L 178.60 461.60 L 174.10 456.10 L 169.80 450.30 L 162.20 438.20 L 154.30 422.70 L 150.50 414.00 L 144.80 398.50 L 140.30 383.50 Z" fill="#e1eaf6" fill-rule="nonzero" group-id="10,28" id="XMLID_335_" node-id="54" stroke="none" target-height="110.100006" target-width="128.09999" target-x="140.3" target-y="383.5"></path></g></g><g node-id="137"><g node-id="155"><path d="M 353.40 236.70 L 350.20 240.20 L 345.80 243.40 L 341.50 244.80 L 339.20 245.00 L 333.60 244.30 L 330.60 243.40 L 323.30 239.60 L 305.70 228.20 L 297.00 222.30 L 290.10 217.00 L 286.60 213.80 L 283.60 210.00 L 281.80 207.30 L 279.40 201.90 L 278.80 199.10 L 278.80 196.60 L 279.30 194.20 L 280.10 192.40 L 281.40 190.80 L 283.10 189.30 L 286.50 187.20 L 289.20 186.10 L 292.70 185.60 L 297.00 186.70 L 349.50 215.40 L 353.40 218.40 L 354.90 220.20 L 356.00 222.30 L 356.70 224.60 L 357.00 226.90 L 356.80 229.40 L 356.20 231.80 L 355.10 234.20 L 353.40 236.70 Z" fill="#fec272" fill-rule="nonzero" group-id="11,29" id="XMLID_379_" node-id="57" stroke="none" target-height="59.399994" target-width="78.20001" target-x="278.8" target-y="185.6"></path><path d="M 352.40 237.80 L 350.20 240.10 L 347.70 242.20 L 343.80 244.10 L 341.50 244.70 L 336.60 244.80 L 333.60 244.20 L 327.20 241.70 L 314.20 233.70 L 297.00 222.20 L 290.10 216.90 L 286.60 213.70 L 283.60 209.90 L 280.40 204.50 L 279.40 201.80 L 278.80 199.00 L 278.80 196.50 L 279.30 194.10 L 285.50 199.20 L 293.80 205.30 L 308.10 215.00 L 321.80 222.80 L 352.40 237.80 Z" fill="#fbb76c" fill-rule="nonzero" group-id="11,29" id="XMLID_375_" node-id="58" stroke="none" target-height="50.699997" target-width="73.600006" target-x="278.8" target-y="194.1"></path></g></g><g node-id="138"><g node-id="156"><g node-id="169"><path d="M 239.60 156.80 L 254.00 173.50 L 255.30 174.00 L 256.60 174.30 L 259.90 174.00 L 263.20 172.10 L 264.60 170.70 L 266.10 168.20 L 266.40 166.40 L 266.20 164.70 L 265.60 163.20 L 264.90 162.20 L 248.40 145.90 L 247.30 145.50 L 246.10 145.30 L 243.50 145.80 L 241.10 147.60 L 239.50 149.60 L 238.70 151.30 L 238.40 152.80 L 238.50 154.40 L 239.60 156.80 Z" fill="#f7a491" fill-rule="nonzero" group-id="12,30,43" id="XMLID_352_" node-id="62" stroke="none" target-height="29" target-width="28" target-x="238.4" target-y="145.3"></path><path d="M 245.60 163.80 L 253.90 173.50 L 256.50 174.30 L 259.80 174.00 L 263.10 172.10 L 265.50 169.40 L 266.30 166.40 L 266.10 164.70 L 264.80 162.20 L 257.00 154.50 L 251.80 158.30 L 245.60 163.80 Z" fill="#f48b77" fill-rule="nonzero" group-id="12,30,43" id="XMLID_351_" node-id="63" stroke="none" target-height="19.800003" target-width="20.699982" target-x="245.6" target-y="154.5"></path><path d="M 252.50 143.80 L 253.20 149.90 L 253.10 151.90 L 251.80 154.60 L 250.40 156.40 L 247.30 159.10 L 244.40 160.30 L 242.80 160.50 L 238.20 159.60 L 234.60 158.30 L 228.60 154.90 L 225.60 152.60 L 220.10 147.60 L 218.20 145.40 L 216.70 143.30 L 216.30 142.10 L 216.50 140.90 L 216.90 140.30 L 218.40 140.10 L 220.00 141.00 L 226.40 145.80 L 222.30 140.60 L 219.60 136.20 L 218.20 132.30 L 218.60 130.10 L 219.10 129.60 L 220.00 129.50 L 222.20 130.90 L 226.90 136.10 L 231.20 139.60 L 225.40 132.30 L 223.00 128.50 L 221.90 126.10 L 221.60 123.10 L 221.90 122.20 L 223.10 121.00 L 223.70 120.90 L 225.60 122.20 L 235.70 134.20 L 231.20 126.50 L 228.80 121.00 L 228.50 119.80 L 228.80 118.20 L 230.10 117.40 L 230.90 117.30 L 233.00 118.40 L 234.40 119.90 L 241.40 132.30 L 244.90 136.40 L 245.30 132.90 L 246.50 128.80 L 247.60 127.30 L 248.50 126.60 L 249.90 126.50 L 250.70 127.10 L 251.70 129.30 L 252.50 143.80 Z" fill="#f7a491" fill-rule="nonzero" group-id="12,30,43" id="XMLID_350_" node-id="64" stroke="none" target-height="43.199997" target-width="36.899994" target-x="216.3" target-y="117.3"></path><path d="M 244.60 151.50 L 237.20 149.30 L 229.40 148.10 L 234.30 141.60 L 237.00 138.80 L 240.00 136.40 L 242.00 145.70 L 243.00 148.60 L 244.60 151.50 Z" fill="#f48b77" fill-rule="nonzero" group-id="12,30,43" id="XMLID_327_" node-id="65" stroke="none" target-height="15.100006" target-width="15.200012" target-x="229.4" target-y="136.4"></path></g><g node-id="170"><path d="M 307.40 212.20 L 304.10 215.70 L 302.10 217.00 L 300.10 217.80 L 298.10 218.10 L 295.40 217.90 L 292.40 217.10 L 289.20 215.70 L 284.60 212.80 L 279.40 208.90 L 272.30 202.60 L 264.80 194.80 L 257.80 187.00 L 252.40 180.40 L 247.40 173.30 L 246.10 170.40 L 246.10 169.10 L 246.70 167.80 L 251.00 163.50 L 256.40 159.40 L 261.30 156.40 L 262.80 155.90 L 264.30 155.90 L 294.90 183.20 L 302.00 188.70 L 304.60 191.10 L 306.90 193.90 L 308.80 197.10 L 309.70 199.40 L 310.30 201.80 L 310.40 204.30 L 310.00 206.80 L 309.10 209.40 L 307.40 212.20 Z" fill="#fec272" fill-rule="nonzero" group-id="12,30,44" id="XMLID_378_" node-id="67" stroke="none" target-height="62.200012" target-width="64.29999" target-x="246.1" target-y="155.9"></path><path d="M 306.20 213.80 L 304.20 215.70 L 302.20 217.00 L 300.20 217.80 L 298.20 218.10 L 295.50 217.90 L 292.50 217.10 L 289.30 215.70 L 284.70 212.80 L 276.20 206.10 L 264.90 194.80 L 257.90 187.00 L 249.60 176.60 L 246.60 171.80 L 246.20 170.40 L 246.20 169.10 L 246.80 167.80 L 251.10 163.50 L 265.50 180.40 L 275.30 190.50 L 280.50 195.30 L 285.50 199.30 L 296.30 207.20 L 306.20 213.80 Z" fill="#fbb76c" fill-rule="nonzero" group-id="12,30,44" id="XMLID_376_" node-id="68" stroke="none" target-height="54.600006" target-width="60.000015" target-x="246.2" target-y="163.5"></path></g></g></g><g node-id="139"><g node-id="157"><path d="M 430.00 238.00 L 429.70 241.00 L 429.00 243.70 L 427.80 245.80 L 426.40 247.40 L 422.10 249.90 L 414.20 252.10 L 383.50 258.70 L 371.80 260.60 L 362.10 261.30 L 357.10 260.60 L 352.20 258.50 L 347.80 255.20 L 345.90 253.10 L 342.70 247.80 L 341.50 244.50 L 340.60 240.80 L 340.20 236.90 L 340.20 232.40 L 340.60 229.00 L 341.40 226.10 L 342.40 223.70 L 343.70 221.60 L 345.90 219.20 L 348.40 217.40 L 351.30 216.10 L 354.40 215.40 L 357.70 215.00 L 361.10 215.10 L 384.30 219.70 L 396.00 221.70 L 412.50 223.60 L 418.20 224.80 L 421.80 225.90 L 424.70 227.50 L 426.90 229.30 L 428.30 230.90 L 429.20 232.90 L 429.80 235.20 L 430.00 238.00 Z" fill="#fec272" fill-rule="nonzero" group-id="13,31" id="XMLID_370_" node-id="71" stroke="none" target-height="46.299988" target-width="89.79999" target-x="340.2" target-y="215"></path><path d="M 429.70 241.00 L 429.00 243.70 L 427.80 245.80 L 426.40 247.40 L 422.10 249.90 L 414.20 252.10 L 395.80 256.10 L 383.50 258.70 L 371.80 260.60 L 362.10 261.30 L 357.10 260.60 L 354.60 259.70 L 349.90 257.00 L 347.80 255.20 L 344.20 250.60 L 342.70 247.80 L 354.20 247.90 L 374.20 247.00 L 404.50 244.20 L 429.70 241.00 Z" fill="#fbb76c" fill-rule="nonzero" group-id="13,31" id="XMLID_361_" node-id="72" stroke="none" target-height="20.299988" target-width="87" target-x="342.7" target-y="241"></path></g></g><g node-id="140"><g node-id="158"><g node-id="171"><path d="M 475.30 238.10 L 453.50 241.40 L 451.00 240.40 L 449.50 239.10 L 448.00 236.50 L 447.40 234.40 L 447.30 230.90 L 448.70 228.00 L 449.90 226.80 L 452.60 225.70 L 475.80 224.00 L 476.90 224.40 L 477.90 225.10 L 479.50 227.10 L 480.20 230.10 L 480.10 232.70 L 479.60 234.50 L 478.80 235.90 L 477.70 237.00 L 475.30 238.10 Z" fill="#f7a491" fill-rule="nonzero" group-id="14,32,45" id="XMLID_374_" node-id="76" stroke="none" target-height="17.399994" target-width="32.900024" target-x="447.3" target-y="224"></path><path d="M 466.10 239.50 L 453.50 241.40 L 452.20 241.00 L 451.00 240.40 L 448.70 238.00 L 447.40 234.40 L 447.20 232.40 L 447.70 229.60 L 448.70 228.00 L 449.90 226.80 L 451.40 226.10 L 452.60 225.70 L 463.60 224.90 L 465.10 231.20 L 466.10 239.50 Z" fill="#f48b77" fill-rule="nonzero" group-id="14,32,45" id="XMLID_372_" node-id="77" stroke="none" target-height="16.5" target-width="18.899994" target-x="447.2" target-y="224.9"></path><path d="M 474.20 221.50 L 469.60 225.60 L 468.50 227.20 L 467.60 230.10 L 467.50 232.40 L 468.00 236.50 L 469.50 239.30 L 470.60 240.40 L 474.70 242.70 L 478.30 244.10 L 485.00 245.40 L 488.80 245.70 L 496.20 245.40 L 499.10 245.00 L 501.60 244.30 L 502.70 243.70 L 503.40 242.70 L 503.40 241.90 L 502.50 240.90 L 492.60 240.00 L 499.10 238.70 L 504.00 237.10 L 507.50 235.00 L 508.80 233.20 L 508.60 232.40 L 508.00 231.80 L 505.50 231.40 L 498.40 232.30 L 492.80 232.20 L 502.00 230.40 L 506.30 229.10 L 508.60 228.00 L 510.80 226.00 L 511.20 225.00 L 511.10 223.40 L 510.70 222.90 L 508.40 222.70 L 493.00 225.10 L 501.40 222.20 L 506.80 219.60 L 507.80 218.80 L 508.70 217.40 L 508.20 216.00 L 507.60 215.40 L 505.40 214.90 L 503.30 215.10 L 492.70 219.10 L 489.80 219.90 L 484.40 220.80 L 486.40 217.90 L 488.10 214.00 L 488.30 212.20 L 488.00 211.10 L 487.10 210.20 L 486.10 210.10 L 483.80 211.10 L 474.20 221.50 Z" fill="#f7a491" fill-rule="nonzero" group-id="14,32,45" id="XMLID_317_" node-id="78" stroke="none" target-height="35.59999" target-width="43.700012" target-x="467.5" target-y="210.1"></path><path d="M 475.10 232.40 L 482.20 235.50 L 485.30 237.20 L 488.90 239.70 L 489.40 231.60 L 489.30 228.50 L 488.50 224.00 L 480.90 229.70 L 478.20 231.20 L 475.10 232.40 Z" fill="#f48b77" fill-rule="nonzero" group-id="14,32,45" id="XMLID_308_" node-id="79" stroke="none" target-height="15.699997" target-width="14.299988" target-x="475.1" target-y="224"></path></g><g node-id="172"><path d="M 461.90 232.90 L 461.60 238.50 L 461.10 240.50 L 459.70 243.30 L 457.70 245.20 L 448.40 247.30 L 439.20 248.90 L 409.70 253.10 L 405.60 253.00 L 403.00 252.70 L 398.40 251.00 L 396.50 249.60 L 394.80 247.70 L 393.50 245.30 L 392.70 242.90 L 392.10 239.50 L 392.00 236.20 L 392.40 233.20 L 393.20 230.30 L 394.50 227.80 L 396.20 225.70 L 397.80 224.40 L 399.60 223.50 L 401.80 222.80 L 404.40 222.50 L 455.70 219.90 L 456.70 220.20 L 458.10 221.20 L 459.40 222.90 L 460.60 225.50 L 461.70 229.90 L 461.90 232.90 Z" fill="#fec272" fill-rule="nonzero" group-id="14,32,46" id="XMLID_371_" node-id="81" stroke="none" target-height="33.200012" target-width="69.899994" target-x="392" target-y="219.9"></path><path d="M 461.90 235.40 L 461.10 240.50 L 460.40 242.20 L 458.40 244.80 L 455.30 245.90 L 448.40 247.30 L 413.90 252.70 L 409.70 253.10 L 405.60 253.00 L 403.00 252.70 L 398.40 251.00 L 396.50 249.60 L 394.80 247.70 L 393.50 245.30 L 430.10 240.90 L 449.00 237.90 L 461.90 235.40 Z" fill="#fbb76c" fill-rule="nonzero" group-id="14,32,46" id="XMLID_354_" node-id="82" stroke="none" target-height="17.700012" target-width="68.399994" target-x="393.5" target-y="235.4"></path></g></g></g><g node-id="141"><g node-id="159"><path d="M 242.90 250.90 L 240.10 253.40 L 238.60 255.60 L 237.10 259.30 L 236.70 261.80 L 236.60 264.40 L 237.10 267.40 L 238.10 271.10 L 241.90 279.70 L 247.80 290.10 L 251.30 295.40 L 259.10 305.60 L 263.20 310.00 L 266.00 312.60 L 271.30 316.50 L 274.10 317.90 L 276.60 318.60 L 278.90 318.80 L 282.40 318.30 L 285.40 317.40 L 288.00 315.90 L 290.10 314.00 L 291.50 312.20 L 292.60 310.10 L 293.40 307.60 L 293.80 304.60 L 293.90 301.10 L 293.50 297.00 L 292.50 292.10 L 290.70 286.40 L 287.90 279.70 L 285.30 274.70 L 282.50 270.40 L 279.40 266.70 L 276.00 263.30 L 272.50 260.50 L 265.30 256.00 L 258.40 253.00 L 253.30 251.60 L 249.10 250.90 L 245.30 250.70 L 242.90 250.90 Z" fill="#f9a554" fill-rule="nonzero" group-id="15,33" id="XMLID_324_" node-id="85" stroke="none" target-height="68.09999" target-width="57.299988" target-x="236.6" target-y="250.7"></path><g node-id="173"><path d="M 309.80 319.40 L 304.60 323.40 L 301.40 325.40 L 291.60 330.70 L 283.30 334.10 L 277.70 335.70 L 279.30 331.10 L 279.70 327.10 L 279.50 320.80 L 277.80 312.20 L 273.80 301.20 L 270.90 295.30 L 268.20 290.70 L 262.80 283.50 L 258.00 279.00 L 254.60 276.70 L 250.20 274.80 L 276.70 263.40 L 281.20 264.50 L 288.60 267.40 L 291.70 269.20 L 295.50 272.00 L 298.80 275.00 L 301.50 278.20 L 303.80 281.70 L 305.70 285.30 L 307.20 289.00 L 308.90 294.70 L 309.90 300.00 L 310.40 305.30 L 310.40 313.90 L 309.80 319.40 Z" fill="#f7a491" fill-rule="nonzero" group-id="15,33,47" id="XMLID_334_" node-id="87" stroke="none" target-height="72.30002" target-width="60.199997" target-x="250.2" target-y="263.4"></path><path d="M 309.80 319.40 L 304.60 323.40 L 301.40 325.40 L 296.60 328.20 L 287.40 332.60 L 287.90 329.40 L 288.00 324.60 L 287.10 317.30 L 284.70 307.90 L 282.70 302.50 L 280.00 296.30 L 276.50 289.60 L 273.20 284.30 L 269.70 279.50 L 266.50 275.90 L 260.50 270.40 L 276.70 263.40 L 281.20 264.50 L 288.60 267.40 L 291.70 269.20 L 295.50 272.00 L 298.80 275.00 L 301.50 278.20 L 303.80 281.70 L 305.70 285.30 L 307.20 289.00 L 308.90 294.70 L 309.90 300.00 L 310.40 305.30 L 310.40 313.90 L 309.80 319.40 Z" fill="#f48b77" fill-rule="nonzero" group-id="15,33,47" id="XMLID_332_" node-id="88" stroke="none" target-height="69.20001" target-width="49.899994" target-x="260.5" target-y="263.4"></path></g><g node-id="174"><path d="M 359.10 284.60 L 354.10 292.50 L 348.40 300.30 L 342.50 307.80 L 336.50 314.80 L 324.90 327.10 L 319.50 332.20 L 311.40 338.90 L 309.30 340.10 L 307.20 340.90 L 303.70 341.40 L 302.00 341.10 L 300.50 340.40 L 299.10 339.30 L 298.00 337.90 L 297.00 335.90 L 296.10 333.10 L 291.90 313.40 L 287.70 299.50 L 284.90 292.40 L 281.60 285.40 L 278.90 280.90 L 276.00 276.60 L 272.80 272.70 L 264.30 264.50 L 260.60 261.70 L 255.00 258.00 L 243.00 252.00 L 242.80 251.40 L 243.00 250.90 L 244.70 250.10 L 246.40 249.90 L 257.60 249.50 L 263.30 248.80 L 269.40 247.60 L 276.70 245.50 L 283.20 243.00 L 289.20 240.30 L 299.80 234.00 L 309.00 227.20 L 323.90 214.40 L 326.70 212.80 L 329.70 211.50 L 332.90 210.60 L 336.90 210.00 L 340.90 209.80 L 345.10 210.00 L 353.20 211.80 L 357.10 213.20 L 364.30 216.90 L 367.30 219.10 L 370.20 221.80 L 372.50 224.60 L 373.80 226.60 L 375.30 230.70 L 376.50 237.60 L 376.90 241.90 L 376.80 246.10 L 375.70 251.80 L 372.40 260.40 L 369.00 267.30 L 359.10 284.60 Z" fill="#fec272" fill-rule="nonzero" group-id="15,33,48" id="XMLID_382_" node-id="90" stroke="none" target-height="131.59999" target-width="134.09999" target-x="242.8" target-y="209.8"></path><path d="M 367.20 219.10 L 360.60 220.90 L 352.20 221.70 L 347.50 221.40 L 342.20 220.70 L 338.20 219.80 L 333.80 217.90 L 332.30 216.70 L 331.60 215.50 L 331.40 214.30 L 332.00 211.90 L 332.90 210.60 L 336.90 210.00 L 340.90 209.80 L 345.10 210.00 L 353.20 211.80 L 360.80 214.90 L 367.20 219.10 Z" fill="#fbb76c" fill-rule="nonzero" group-id="15,33,48" id="XMLID_380_" node-id="91" stroke="none" target-height="11.899994" target-width="35.80002" target-x="331.4" target-y="209.8"></path><path d="M 359.10 284.60 L 354.10 292.50 L 348.40 300.30 L 336.50 314.80 L 330.40 321.40 L 319.50 332.20 L 315.30 335.90 L 309.30 340.10 L 305.40 341.30 L 302.00 341.10 L 300.50 340.40 L 299.10 339.30 L 298.00 337.90 L 297.00 335.90 L 296.10 333.10 L 291.90 313.40 L 302.40 308.00 L 314.20 300.70 L 320.20 296.40 L 326.20 291.60 L 332.00 286.30 L 337.40 280.50 L 343.80 272.70 L 349.20 265.50 L 365.30 242.70 L 367.50 240.10 L 371.10 237.30 L 373.70 236.60 L 375.00 236.80 L 376.50 237.70 L 376.90 242.00 L 376.80 246.10 L 375.70 251.80 L 372.40 260.50 L 369.00 267.30 L 359.10 284.60 Z" fill="#fbb76c" fill-rule="nonzero" group-id="15,33,48" id="XMLID_367_" node-id="92" stroke="none" target-height="104.69998" target-width="85" target-x="291.9" target-y="236.6"></path></g></g></g><g node-id="142"><g node-id="160"><path d="M 285.50 319.40 L 284.80 323.40 L 283.80 326.60 L 282.60 329.30 L 280.90 331.80 L 279.00 334.00 L 276.70 335.90 L 272.90 338.40 L 251.90 348.90 L 243.00 354.60 L 237.20 359.30 L 231.90 364.30 L 215.00 383.10 L 211.60 386.30 L 208.50 388.70 L 206.10 390.10 L 203.90 390.90 L 201.80 391.20 L 199.80 391.10 L 197.80 390.20 L 195.70 388.70 L 193.90 386.80 L 190.90 381.90 L 189.80 379.00 L 189.10 375.60 L 188.60 371.60 L 188.60 367.50 L 189.10 362.70 L 190.20 357.00 L 191.70 351.50 L 193.90 345.00 L 197.00 337.60 L 200.70 329.80 L 204.30 323.40 L 207.80 318.00 L 214.60 309.40 L 217.80 306.10 L 222.90 301.60 L 227.80 298.10 L 237.70 292.30 L 242.70 289.90 L 247.30 288.20 L 251.40 287.10 L 255.20 286.50 L 259.20 286.40 L 262.80 286.70 L 266.10 287.30 L 269.10 288.40 L 271.90 289.90 L 274.50 291.60 L 278.90 295.90 L 281.30 299.20 L 283.10 302.90 L 284.50 306.90 L 285.40 311.00 L 285.70 315.20 L 285.50 319.40 Z" fill="#e1ecff" fill-rule="nonzero" group-id="16,34" id="XMLID_362_" node-id="95" stroke="none" target-height="104.80002" target-width="97.100006" target-x="188.6" target-y="286.4"></path><path d="M 285.50 319.40 L 284.80 323.40 L 283.80 326.60 L 282.60 329.30 L 280.90 331.80 L 279.00 334.00 L 276.70 335.90 L 272.90 338.40 L 251.90 348.90 L 243.00 354.60 L 237.20 359.30 L 231.90 364.30 L 215.00 383.10 L 211.60 386.30 L 208.50 388.70 L 210.20 379.40 L 211.70 374.80 L 214.30 368.00 L 220.40 355.80 L 223.40 350.90 L 230.40 340.70 L 222.10 335.20 L 214.50 328.30 L 210.80 323.50 L 207.70 318.10 L 211.10 313.40 L 217.70 306.20 L 222.80 301.70 L 227.70 298.20 L 232.80 295.10 L 242.60 290.00 L 247.20 288.30 L 251.40 287.20 L 255.20 286.60 L 259.10 286.40 L 262.80 286.70 L 266.00 287.40 L 269.00 288.40 L 274.50 291.60 L 278.90 295.90 L 281.30 299.30 L 283.10 302.90 L 284.50 306.90 L 285.40 311.00 L 285.70 315.20 L 285.50 319.40 Z" fill="#d0e0f1" fill-rule="nonzero" group-id="16,34" id="XMLID_360_" node-id="96" stroke="none" target-height="102.30002" target-width="78.000015" target-x="207.7" target-y="286.4"></path></g></g><g node-id="143"><g node-id="161"><g node-id="175"><path d="M 204.80 462.00 L 200.20 466.80 L 196.10 470.30 L 192.60 472.70 L 188.90 474.60 L 185.70 475.70 L 183.10 476.10 L 180.50 475.90 L 178.40 475.30 L 176.70 474.30 L 175.40 472.90 L 174.50 471.30 L 174.10 469.40 L 174.10 465.10 L 174.70 461.30 L 175.80 457.50 L 177.40 453.30 L 181.60 444.40 L 184.20 439.60 L 189.20 432.60 L 193.60 428.50 L 196.10 426.90 L 198.70 425.80 L 201.40 425.10 L 204.80 424.80 L 207.50 425.10 L 209.90 425.80 L 211.80 427.00 L 213.40 428.50 L 214.70 430.40 L 215.70 432.70 L 216.90 437.90 L 216.60 442.80 L 215.90 445.30 L 214.80 448.10 L 211.10 454.20 L 204.80 462.00 Z" fill="#9dabd7" fill-rule="nonzero" group-id="17,35,49" id="XMLID_340_" node-id="100" stroke="none" target-height="51.30002" target-width="42.799988" target-x="174.1" target-y="424.8"></path><path d="M 202.10 456.50 L 197.50 461.30 L 193.50 464.70 L 190.00 467.10 L 186.30 469.10 L 183.10 470.20 L 180.50 470.60 L 177.90 470.50 L 175.80 469.90 L 174.10 468.90 L 174.10 465.20 L 174.70 461.40 L 177.40 453.40 L 184.20 439.70 L 189.20 432.70 L 193.60 428.60 L 196.10 427.00 L 198.70 425.90 L 201.40 425.20 L 204.80 424.90 L 207.50 425.20 L 209.90 425.90 L 211.80 427.10 L 213.40 428.60 L 214.20 432.50 L 214.20 434.90 L 213.20 439.80 L 210.30 445.70 L 207.10 450.40 L 202.10 456.50 Z" fill="#273675" fill-rule="nonzero" group-id="17,35,49" id="XMLID_338_" node-id="101" stroke="none" target-height="45.700012" target-width="40.09999" target-x="174.1" target-y="424.9"></path><path d="M 204.70 445.10 L 198.90 449.60 L 193.90 452.00 L 191.80 452.60 L 188.20 452.80 L 186.80 452.40 L 184.80 451.10 L 183.90 449.20 L 183.90 446.90 L 185.10 442.70 L 189.00 435.60 L 192.70 430.60 L 194.80 428.50 L 197.10 426.80 L 199.70 425.70 L 202.40 425.00 L 205.20 424.90 L 207.50 425.20 L 209.20 425.90 L 210.50 426.80 L 211.80 428.50 L 212.60 430.70 L 212.90 432.60 L 212.70 434.60 L 211.90 436.60 L 210.30 439.10 L 204.70 445.10 Z" fill="#212e60" fill-rule="nonzero" group-id="17,35,49" id="XMLID_329_" node-id="102" stroke="none" target-height="27.899994" target-width="29" target-x="183.9" target-y="424.9"></path></g><g node-id="176"><path d="M 220.10 380.80 L 217.10 401.20 L 213.50 431.40 L 210.40 435.50 L 208.90 436.70 L 205.70 438.40 L 201.60 439.00 L 199.00 438.70 L 195.50 437.60 L 193.50 436.30 L 191.70 434.00 L 190.50 421.60 L 189.40 408.90 L 188.30 386.90 L 188.50 372.10 L 189.10 366.00 L 190.00 361.40 L 192.30 355.10 L 193.50 353.10 L 196.40 350.20 L 198.00 349.40 L 201.40 348.90 L 206.20 349.50 L 209.90 350.50 L 212.90 351.70 L 215.60 353.30 L 217.70 355.30 L 219.30 357.70 L 220.40 360.40 L 221.10 363.50 L 221.40 367.30 L 220.90 375.60 L 220.10 380.80 Z" fill="#e1ecff" fill-rule="nonzero" group-id="17,35,50" id="XMLID_363_" node-id="104" stroke="none" target-height="90.100006" target-width="33.09999" target-x="188.3" target-y="348.9"></path><path d="M 220.10 380.80 L 217.10 401.20 L 213.50 431.40 L 211.50 434.30 L 208.90 436.70 L 208.60 423.70 L 208.90 408.30 L 209.30 400.30 L 210.90 385.40 L 213.30 373.30 L 214.90 367.90 L 216.90 362.70 L 219.30 357.80 L 220.40 360.40 L 221.10 363.60 L 221.40 367.40 L 220.90 375.60 L 220.10 380.80 Z" fill="#d0e0f1" fill-rule="nonzero" group-id="17,35,50" id="XMLID_358_" node-id="105" stroke="none" target-height="78.900024" target-width="12.799988" target-x="208.6" target-y="357.8"></path><path d="M 190.00 369.80 L 190.30 368.40 L 190.90 367.20 L 193.10 365.50 L 194.40 365.30 L 200.60 366.40 L 207.00 366.70 L 208.10 367.20 L 209.80 369.00 L 210.30 371.50 L 208.90 390.20 L 208.50 391.80 L 207.70 393.10 L 206.40 394.00 L 204.90 394.50 L 198.60 394.50 L 194.60 393.20 L 191.50 391.40 L 190.00 389.70 L 189.60 388.60 L 190.00 369.80 Z" fill="#c4dcf2" fill-rule="nonzero" group-id="17,35,50" id="XMLID_342_" node-id="106" stroke="none" target-height="29.200012" target-width="20.699997" target-x="189.6" target-y="365.3"></path></g></g></g><g node-id="144"><g node-id="162"><path d="M 287.40 332.60 L 282.20 334.90 L 273.50 337.30 L 267.80 338.10 L 263.20 338.20 L 258.00 337.90 L 252.60 337.10 L 247.00 335.80 L 241.50 333.90 L 236.30 331.50 L 229.90 327.50 L 227.10 325.10 L 223.90 321.70 L 220.20 317.20 L 212.70 306.70 L 193.20 278.00 L 178.60 259.90 L 176.20 256.40 L 174.90 254.00 L 173.60 249.60 L 173.60 247.50 L 174.10 245.20 L 176.50 240.80 L 178.40 238.90 L 180.60 237.40 L 183.10 236.40 L 185.90 235.80 L 188.80 235.60 L 195.30 236.40 L 203.60 239.00 L 208.40 241.30 L 213.50 244.10 L 218.30 247.30 L 222.90 251.00 L 232.00 259.00 L 263.70 282.70 L 270.00 288.10 L 275.70 293.80 L 279.10 297.80 L 282.10 301.90 L 284.50 306.00 L 287.00 311.80 L 288.40 316.50 L 289.00 320.40 L 289.10 324.10 L 288.50 329.50 L 287.40 332.60 Z" fill="#e1ecff" fill-rule="nonzero" group-id="18,36" id="XMLID_366_" node-id="109" stroke="none" target-height="102.600006" target-width="115.5" target-x="173.6" target-y="235.6"></path><path d="M 287.40 332.60 L 282.20 334.90 L 273.50 337.30 L 267.80 338.10 L 263.20 338.20 L 258.00 337.90 L 252.60 337.10 L 247.00 335.80 L 241.50 333.90 L 236.30 331.50 L 229.90 327.50 L 227.10 325.10 L 223.90 321.70 L 220.20 317.20 L 212.70 306.70 L 193.20 278.00 L 178.60 259.90 L 176.20 256.40 L 174.90 254.00 L 173.60 249.60 L 173.60 247.50 L 174.10 245.20 L 176.50 240.80 L 210.30 272.70 L 225.50 288.30 L 241.40 305.90 L 244.50 308.90 L 247.60 311.30 L 250.90 313.10 L 254.30 314.50 L 257.80 315.50 L 261.30 316.00 L 266.60 316.30 L 271.60 315.90 L 276.50 315.10 L 280.60 314.10 L 287.20 311.90 L 288.50 316.60 L 289.10 320.50 L 289.20 324.10 L 288.50 329.50 L 287.40 332.60 Z" fill="#d0e0f1" fill-rule="nonzero" group-id="18,36" id="XMLID_359_" node-id="110" stroke="none" target-height="97.40001" target-width="115.600006" target-x="173.6" target-y="240.8"></path></g></g><g node-id="145"><g node-id="163"><g node-id="177"><path d="M 122.70 258.00 L 121.60 236.70 L 144.90 236.10 L 147.00 238.80 L 148.00 241.00 L 148.70 243.50 L 148.90 246.60 L 148.40 249.80 L 147.70 252.60 L 144.80 258.70 L 122.70 258.00 Z" fill="#f48b77" fill-rule="nonzero" group-id="19,37,51" id="XMLID_347_" node-id="114" stroke="none" target-height="22.600006" target-width="27.299995" target-x="121.6" target-y="236.1"></path><path d="M 218.60 268.70 L 217.10 270.60 L 213.90 273.00 L 210.10 274.00 L 205.60 273.90 L 202.00 273.20 L 184.50 268.20 L 179.50 267.10 L 155.00 263.20 L 133.50 260.40 L 134.50 254.90 L 134.70 250.80 L 134.30 245.10 L 133.40 240.80 L 132.30 237.70 L 130.90 234.90 L 128.70 231.80 L 139.90 230.50 L 151.90 229.70 L 166.20 229.80 L 173.80 230.30 L 186.80 232.20 L 197.00 235.00 L 201.70 236.90 L 205.80 239.00 L 209.60 241.50 L 212.90 244.10 L 215.40 246.70 L 219.10 252.10 L 220.30 255.00 L 221.00 257.80 L 221.20 260.60 L 220.90 263.40 L 220.00 266.10 L 218.60 268.70 Z" fill="#e1ecff" fill-rule="nonzero" group-id="19,37,51" id="XMLID_365_" node-id="115" stroke="none" target-height="44.300003" target-width="92.5" target-x="128.7" target-y="229.7"></path><path d="M 212.10 273.70 L 207.90 274.20 L 205.60 274.00 L 202.00 273.30 L 184.50 268.30 L 179.50 267.20 L 155.00 263.30 L 133.50 260.50 L 134.50 255.00 L 134.70 250.90 L 153.40 253.60 L 173.40 257.40 L 186.70 260.70 L 192.60 262.60 L 198.10 264.60 L 202.30 266.70 L 206.30 269.20 L 212.10 273.70 Z" fill="#d0e0f1" fill-rule="nonzero" group-id="19,37,51" id="XMLID_355_" node-id="116" stroke="none" target-height="23.300018" target-width="78.600006" target-x="133.5" target-y="250.9"></path><path d="M 212.80 244.10 L 211.50 248.50 L 209.00 252.70 L 206.80 255.30 L 204.30 256.30 L 202.90 256.30 L 182.60 253.30 L 181.00 252.80 L 179.60 251.80 L 178.70 250.50 L 178.10 248.90 L 177.90 247.20 L 179.90 239.70 L 180.70 233.70 L 181.40 231.30 L 191.90 233.50 L 196.90 235.00 L 201.60 236.90 L 205.80 239.00 L 209.60 241.50 L 212.80 244.10 Z" fill="#c4dcf2" fill-rule="nonzero" group-id="19,37,51" id="XMLID_357_" node-id="117" stroke="none" target-height="24.999985" target-width="34.90001" target-x="177.9" target-y="231.3"></path></g><g node-id="178"><path d="M 119.50 263.40 L 116.10 264.30 L 111.80 264.20 L 108.10 262.90 L 106.30 261.70 L 103.90 259.50 L 100.10 254.60 L 94.30 244.10 L 86.80 227.30 L 84.20 220.60 L 82.20 213.40 L 81.80 209.80 L 82.00 206.50 L 82.50 204.40 L 83.40 202.50 L 84.60 200.70 L 86.20 199.20 L 88.40 198.00 L 92.90 196.50 L 97.60 196.20 L 100.80 196.50 L 104.20 197.30 L 107.40 198.50 L 110.70 200.20 L 114.00 202.60 L 117.00 205.30 L 119.80 208.80 L 122.50 213.00 L 124.20 216.30 L 127.10 224.30 L 128.30 229.20 L 129.40 236.00 L 130.00 241.40 L 130.00 245.60 L 129.60 249.90 L 129.00 253.20 L 128.10 255.70 L 126.80 258.00 L 124.00 261.00 L 121.70 262.50 L 119.50 263.40 Z" fill="#273675" fill-rule="nonzero" group-id="19,37,52" id="XMLID_344_" node-id="119" stroke="none" target-height="68.09999" target-width="48.199997" target-x="81.8" target-y="196.2"></path><path d="M 119.50 263.40 L 115.60 264.30 L 113.00 264.40 L 108.70 263.20 L 106.80 262.10 L 104.20 259.80 L 100.10 254.60 L 94.30 244.10 L 90.40 235.60 L 84.20 220.60 L 82.30 213.90 L 81.90 210.60 L 82.20 205.40 L 83.80 201.80 L 86.80 199.00 L 91.30 197.00 L 94.60 196.40 L 97.50 197.90 L 100.90 200.50 L 105.40 205.20 L 108.00 208.60 L 112.60 216.50 L 115.10 221.90 L 117.70 228.70 L 119.60 234.60 L 120.70 239.90 L 121.40 245.20 L 121.40 253.80 L 120.60 259.40 L 119.50 263.40 Z" fill="#9dabd7" fill-rule="nonzero" group-id="19,37,52" id="XMLID_345_" node-id="120" stroke="none" target-height="68" target-width="39.5" target-x="81.9" target-y="196.4"></path><path d="M 113.00 264.30 L 108.70 263.10 L 106.80 262.00 L 104.20 259.70 L 101.50 256.60 L 98.20 251.40 L 90.40 235.50 L 84.20 220.50 L 82.30 213.80 L 81.90 210.50 L 82.20 205.30 L 83.80 201.70 L 84.90 200.90 L 87.90 199.90 L 89.80 199.90 L 91.70 200.40 L 94.10 201.60 L 97.40 204.50 L 102.00 210.40 L 104.70 214.90 L 109.60 224.80 L 113.40 235.10 L 114.70 240.10 L 116.10 250.00 L 116.40 254.00 L 116.10 259.80 L 114.90 262.80 L 113.00 264.30 Z" fill="#8096cc" fill-rule="nonzero" group-id="19,37,52" id="XMLID_341_" node-id="121" stroke="none" target-height="64.399994" target-width="34.5" target-x="81.9" target-y="199.9"></path></g></g></g><path d="M 374.00 99.70 L 372.30 120.10 L 375.60 120.80 L 380.80 123.10 L 384.10 125.10 L 387.30 127.70 L 391.00 131.20 L 394.20 135.20 L 396.50 139.00 L 398.30 142.70 L 400.10 149.00 L 400.70 153.00 L 429.30 146.80 L 420.00 144.50 L 413.80 141.70 L 410.80 139.90 L 408.20 137.70 L 406.10 135.10 L 405.30 133.50 L 404.80 129.40 L 405.10 126.00 L 406.00 122.30 L 408.90 114.90 L 412.20 108.30 L 416.10 101.70 L 409.30 106.20 L 399.00 111.90 L 392.10 114.50 L 389.30 115.00 L 385.80 114.40 L 382.00 111.90 L 378.20 107.50 L 374.00 99.70 Z" fill="#c4dcf2" fill-rule="nonzero" group-id="20" id="XMLID_318_" node-id="123" stroke="none" target-height="53.300003" target-width="57" target-x="372.3" target-y="99.7"></path></svg>