<?xml version="1.0" encoding="UTF-8"?>
<svg id="uuid-1ea5d8b9-09ea-4fa8-a1d5-f3d70a5bd288" data-name="图层 1" xmlns="http://www.w3.org/2000/svg" viewBox="0 0 346.5 64.44">
  <path d="M321.2,13.94c.3,3.1,3.8,4.8,6.4,5.6,2.9,.9,5.6,1.7,7.9,2.4,2.3,.7,4.4,1.7,6.1,2.9,1.5,1.1,2.7,2.6,3.6,4.2,.5,.8,.8,1.8,1,2.9,.5,2.6,.4,5.1-.5,7.4-1.4,3.7-4.2,6.4-8.1,7.7-2.3,.8-4.4,1.2-6.4,1.2-7.3,.1-15.2-2.5-18.7-9.4-.1-.2-.1-.4,.2-.5l5.6-3c.1-.1,.2,0,.2,.1,.7,1.5,1.7,2.8,3,3.7,3.2,2.3,6.8,3.2,10.9,2.7,3.8-.5,7.5-3.3,6.7-7.6-.2-1.1-.6-1.9-1.3-2.6-1.7-1.7-4.1-2.7-6.5-3.3-3.5-1-6.5-1.9-9-2.9-2.5-.9-5.3-2.9-6.6-5.1-.9-1.5-1.5-3-1.8-4.6-.5-3.3,.1-6.4,1.9-9.2,3.4-5.3,10.6-7.1,16.5-6.4,4.2,.5,8.9,2.5,11.5,5.8,.7,.9,1.3,1.8,1.8,2.8,.1,.2,.1,.4-.1,.5l-5.3,3.2c-.1,0-.2,0-.2-.1h0c-2.4-4.7-7.4-6.9-12.5-5.9-3.7,.9-6.7,3.4-6.3,7.5h0Zm-11,10.6c0,13.3-10.8,24.1-24.1,24.1s-24.1-10.8-24.1-24.1S272.8,.44,286.1,.44c13.4,0,24.1,10.8,24.1,24.1Zm-6.7-.1c0-9.6-7.7-17.3-17.3-17.3h0c-9.6,0-17.3,7.7-17.3,17.3s7.7,17.3,17.3,17.3,17.3-7.7,17.3-17.3h0ZM8,20.54H31q.1,0,.1-.1h0V1.04q0-.1,.1-.1h7.6q.1,0,.1,.1V48.64q0,.1-.1,.1h-7.6q-.1,0-.1-.1h0V27.84q0-.1-.1-.1H8q-.1,0-.1,.1v20.9q0,.1-.1,.1H.1q-.1,0-.1-.1H0V1.04q0-.1,.1-.1H7.8q.1,0,.1,.1V20.44s0,.1,.1,.1h0Zm233.4,17.4q.1,0,.2-.1c2.9-8,5.8-16.2,8.8-24.4,0-.1,.1-.2,.2-.2h7.5s.1,0,.1,.1h0l-19.9,50.9c-.1,.1-.2,.2-.3,.2h-7.3c-.1,0-.1-.1-.1-.2l6.8-16.1c.1-.2,.1-.4,0-.6l-13.1-34.1q0-.1,.1-.1h7.8c.1,0,.2,.1,.2,.2l9,24.4q-.1,0,0,0h0Zm-112.9-18.9c2.4-3.5,5.7-5.4,9.8-5.7,3.3-.2,6.8,.8,9.2,3.2,2.8,2.8,3.8,6.5,3.8,10.4v20.9q0,.1-.1,.1h-6.9c-.2,0-.3-.1-.3-.3V27.84c0-2.4-.4-4.5-2.1-6.2-2.1-2-5.8-2.1-8.3-.6-2.3,1.4-3.4,4.2-3.4,6.7v20c0,.1-.1,.2-.2,.2h-6.9c-.1,0-.2-.1-.2-.2V26.64c0-2.8-1.7-5.6-4.5-6.4-1.7-.5-4.1-.3-5.6,.6-2.4,1.5-3.6,3.7-3.6,6.6v20.3c0,.1-.1,.2-.2,.2h-7.1q-.1,0-.1-.1V14.24c0-.1,.1-.2,.2-.2h5.9c.1,0,.2,.1,.2,.2l.3,3.7c0,.3,.1,.3,.3,.1,2.2-3,5.2-4.7,9-4.9,4.7-.2,8.2,1.7,10.7,5.7-.1,.3,0,.3,.1,.2h0Zm69.8-.5c.6-.8,1.2-1.6,1.9-2.2,4-3.4,10.4-4,15-1.3,4,2.3,6.1,6.8,6.1,11.5v21.5q0,.1-.1,.1h-7c-.1,0-.2-.1-.2-.2V28.44c0-4.7-2.3-8.3-7.4-8.2-4.8,.1-7.6,3.9-7.6,8.5v19.1c0,.2-.1,.4-.3,.4h-6.7c-.2,0-.3-.1-.3-.4V14.24s0-.1,.1-.1h6c.1,0,.2,.1,.2,.2l.4,4.1c-.3,.1-.2,.2-.1,.1h0ZM65.2,44.84c-.5,.6-.9,1.2-1.5,1.7-2.1,1.6-4.5,2.5-7.2,2.7-1.1,.1-2.4,0-3.8-.2-2.2-.3-4.1-1.1-5.9-2.4-2.4-1.8-3.6-4.2-3.8-7.2-.5-7.5,6.5-11.6,13.2-11.8,2.7-.1,5.4-.1,8.3,0,.2,0,.3-.1,.3-.3h0c-.1-2.8-.6-5.2-3.3-6.5-2.1-1-4.4-1.1-6.7-.4-2.1,.6-3.8,1.9-5.1,3.9q-.1,.1-.2,0l-5.1-3.9q-.1-.1,0-.2c1.7-2.5,3.9-4.3,6.7-5.5,1.9-.7,3.8-1.3,5.9-1.4,2.7-.1,5,.2,6.9,.8,4.4,1.4,7,4.2,8,8.4,.3,1.2,.4,3.2,.4,5.9v19.9c0,.1-.1,.2-.2,.2h-5.9c-.1,0-.2-.1-.2-.2l-.3-3.5c-.2,0-.3-.1-.5,0,.1-.1,0,0,0,0h0Zm-1-6.3c.5-1.5,.7-3.2,.5-5.2,0-.1-.1-.1-.2-.1h-6.7c-2.4,0-4.5,.4-6.2,2.1-1.1,1.1-1.4,2.5-1.2,4,.3,1.8,1.9,3.2,3.6,3.6,4.1,1.1,8.7-.2,10.2-4.4h0Zm21-20.5c2.9-4,7.6-5.2,12.3-4.3,.1,0,.1,.1,.1,.2v6.9q0,.1-.1,.1c-1.5-.4-3.1-.4-4.7-.3-2.3,.1-4.2,1-5.8,2.7-1.6,1.7-1.9,4.2-1.9,6.5v18.3c0,.2-.1,.3-.3,.3h-7c-.1,0-.2-.1-.2-.2V14.44q0-.1,.1-.1h6.5q.1,0,.2,.1l.4,3.5c.2,.1,.3,.1,.4,.1h0Zm92.8-2.8c7.6,3.4,10.3,11.5,9.3,19.3-1,7.2-6.1,12.8-13.2,14-2.3,.4-5.5,.3-7.8-.4-4.5-1.4-7.7-4-9.6-8-2.2-4.6-2.5-10.1-1.1-14.8,.7-2.4,2.1-4.9,3.9-6.7,3.1-3.1,7-4.6,11.6-4.7,2.4-.1,4.7,.4,6.9,1.3h0Zm1.2,21.3c1-2.3,1.1-5.2,.7-7.7-.3-2.4-1.3-4.4-3-6.1-2.4-2.4-6.1-2.9-9.2-1.7-6.6,2.4-7.3,13.1-3.4,18,2.2,2.7,5.1,3.7,8.9,3,2.7-.6,4.9-3,6-5.5h0Z" style="fill: #fff;"/>
  <path d="M270,56.94h32.7c.1,0,.2,.1,.2,.2v6.1c0,.1-.1,.2-.2,.2h-32.7c-.1,0-.2-.1-.2-.2v-6.1c0-.1,.1-.2,.2-.2Z" style="fill: #2069ff;"/>
</svg>