<?xml version="1.0" standalone="no"?><!DOCTYPE svg PUBLIC "-//W3C//DTD SVG 1.1//EN" "http://www.w3.org/Graphics/SVG/1.1/DTD/svg11.dtd"><svg height="800" node-id="1" sillyvg="true" template-height="800" template-width="800" version="1.1" viewBox="0 0 800 800" width="800" xmlns="http://www.w3.org/2000/svg" xmlns:xlink="http://www.w3.org/1999/xlink"><defs node-id="29"></defs><g node-id="71"><g node-id="80"><path d="M 257.70 424.50 L 255.90 419.00 L 253.80 413.70 L 251.20 408.70 L 245.20 399.00 L 241.70 394.40 L 236.20 387.70 L 230.30 381.20 L 218.00 368.80 L 210.30 361.70 L 207.50 359.70 L 201.50 356.40 L 198.20 355.40 L 194.70 354.90 L 192.30 354.90 L 187.90 355.80 L 183.90 357.90 L 182.20 359.40 L 188.40 354.20 L 193.40 347.90 L 196.30 343.30 L 198.70 338.40 L 200.70 333.20 L 202.40 327.90 L 204.90 317.10 L 208.40 292.60 L 210.90 279.20 L 214.00 268.80 L 216.30 263.10 L 219.00 257.70 L 222.10 252.40 L 227.20 244.80 L 232.80 237.50 L 244.70 223.40 L 252.40 215.40 L 256.70 211.80 L 261.20 208.80 L 264.40 207.10 L 267.50 205.90 L 270.70 205.10 L 274.00 204.80 L 277.20 205.20 L 280.60 206.20 L 284.70 202.60 L 289.00 199.30 L 293.70 196.40 L 298.70 193.90 L 303.90 191.70 L 314.80 188.30 L 320.50 187.10 L 328.20 186.00 L 335.90 185.40 L 343.70 185.30 L 351.50 185.70 L 358.90 186.60 L 366.10 187.90 L 374.40 190.10 L 382.70 192.80 L 407.60 201.60 L 415.70 203.80 L 421.20 204.80 L 426.60 205.50 L 431.90 205.60 L 435.90 205.30 L 443.80 203.70 L 447.70 202.20 L 437.80 213.60 L 440.90 214.70 L 446.20 217.80 L 448.60 219.80 L 451.40 222.80 L 453.90 226.20 L 456.10 230.00 L 459.60 238.20 L 461.00 242.60 L 462.70 249.30 L 466.50 268.50 L 468.60 281.50 L 470.30 294.60 L 471.30 307.60 L 471.50 316.40 L 471.30 324.90 L 470.60 333.30 L 468.60 345.70 L 465.20 357.60 L 463.00 363.40 L 460.30 369.00 L 457.20 374.40 L 453.60 379.70 L 446.80 387.60 L 439.00 394.40 L 433.30 398.30 L 427.30 401.80 L 421.00 404.70 L 414.40 407.00 L 407.70 408.90 L 400.90 410.10 L 393.90 410.80 L 387.00 410.90 L 380.10 410.40 L 375.00 409.60 L 365.00 406.90 L 353.50 402.50 L 350.00 401.70 L 346.80 401.60 L 344.80 401.90 L 343.00 402.70 L 340.40 405.20 L 337.30 410.10 L 336.20 411.00 L 333.60 411.90 L 330.40 411.30 L 322.10 406.40 L 318.00 404.60 L 313.90 404.20 L 310.80 404.50 L 307.60 405.20 L 301.40 407.30 L 257.70 424.50 Z" fill="#040000" fill-rule="nonzero" group-id="6,15" node-id="48" stroke="none" target-height="239.2" target-width="289.3" target-x="182.2" target-y="185.3"></path><path d="M 384.50 318.90 L 380.20 321.50 L 376.10 324.80 L 372.20 328.40 L 365.60 335.80 L 359.60 344.20 L 357.70 348.00 L 356.10 352.30 L 354.90 356.80 L 354.10 361.50 L 353.10 370.40 L 352.90 375.80 L 353.30 386.20 L 354.10 391.20 L 355.20 396.40 L 356.80 401.70 L 361.50 412.60 L 364.80 418.90 L 368.10 424.00 L 371.90 428.60 L 376.10 432.90 L 380.70 436.80 L 385.70 440.30 L 391.00 443.40 L 396.50 446.10 L 402.10 448.40 L 407.90 450.30 L 416.70 452.60 L 425.70 454.20 L 443.80 456.10 L 467.80 457.00 L 473.90 456.70 L 481.90 455.40 L 489.20 453.10 L 492.40 451.40 L 495.20 449.40 L 498.70 445.60 L 501.00 440.60 L 502.90 441.80 L 504.90 442.40 L 507.10 442.60 L 511.40 441.70 L 513.50 440.70 L 517.00 437.80 L 518.40 436.00 L 519.90 433.00 L 520.90 429.80 L 521.90 423.10 L 521.80 416.30 L 521.00 404.50 L 519.60 392.80 L 517.60 381.20 L 513.60 364.00 L 508.10 347.20 L 504.90 339.00 L 501.20 331.00 L 497.20 323.20 L 492.80 315.50 L 486.00 305.30 L 478.10 295.90 L 473.70 291.60 L 469.10 287.80 L 464.10 284.30 L 458.90 281.40 L 453.30 279.00 L 445.90 276.60 L 439.90 275.20 L 435.10 274.50 L 431.30 274.40 L 425.30 275.20 L 422.90 275.90 L 419.80 277.50 L 417.10 279.40 L 414.70 281.70 L 411.60 285.70 L 403.00 300.50 L 398.40 307.20 L 395.60 310.50 L 392.50 313.50 L 388.80 316.30 L 384.50 318.90 Z" fill="#ffd5cf" fill-rule="nonzero" group-id="6,15" node-id="50" stroke="none" target-height="182.6" target-width="169.00003" target-x="352.9" target-y="274.4"></path><path d="M 502.50 614.80 L 336.70 611.40 L 336.50 607.60 L 336.80 603.70 L 337.50 599.80 L 339.30 594.00 L 341.70 588.10 L 349.80 570.50 L 353.10 560.80 L 353.80 556.90 L 354.50 542.40 L 355.40 531.70 L 356.40 524.60 L 357.80 517.60 L 359.60 510.80 L 361.80 504.20 L 364.60 497.90 L 367.80 491.90 L 370.60 487.70 L 373.70 483.70 L 377.30 480.00 L 381.20 476.50 L 386.20 472.90 L 391.50 469.90 L 397.00 467.50 L 402.70 465.50 L 408.60 464.00 L 414.70 462.90 L 424.00 461.70 L 433.40 461.20 L 452.30 461.20 L 456.10 461.50 L 459.70 462.20 L 463.10 463.30 L 466.30 464.70 L 469.40 466.60 L 473.00 469.30 L 476.40 472.50 L 479.60 476.20 L 482.60 480.50 L 486.20 486.50 L 489.40 493.10 L 492.30 500.60 L 494.80 508.20 L 499.00 524.70 L 501.20 537.50 L 502.90 550.40 L 504.00 563.40 L 504.50 575.60 L 504.60 587.40 L 504.30 597.80 L 503.50 607.50 L 502.50 614.80 Z" fill="#30406e" fill-rule="nonzero" group-id="6,15" node-id="52" stroke="none" target-height="153.59998" target-width="168.1" target-x="336.5" target-y="461.2"></path><path d="M 364.60 407.40 L 468.50 442.70 L 474.80 445.10 L 477.80 446.60 L 482.10 449.90 L 484.60 453.40 L 485.50 455.80 L 485.90 458.10 L 485.80 460.50 L 485.30 462.90 L 484.50 465.20 L 481.80 469.60 L 478.10 473.30 L 475.90 474.90 L 471.20 477.10 L 467.90 478.00 L 461.20 478.90 L 456.00 479.00 L 440.50 478.40 L 434.90 478.60 L 429.40 479.30 L 423.90 480.30 L 418.50 481.80 L 413.30 483.60 L 403.20 488.30 L 398.40 491.20 L 392.20 495.50 L 386.60 500.30 L 381.30 505.50 L 374.20 514.20 L 368.50 523.80 L 366.10 528.80 L 364.10 534.00 L 362.50 539.30 L 361.30 544.80 L 360.30 551.80 L 357.90 574.00 L 356.80 581.20 L 355.20 588.00 L 353.70 592.30 L 351.90 596.30 L 349.70 599.90 L 347.80 602.50 L 343.00 606.90 L 340.10 608.80 L 337.20 610.20 L 331.20 612.10 L 326.50 612.80 L 316.70 613.20 L 200.70 609.60 L 198.00 609.50 L 193.70 608.70 L 190.70 606.90 L 189.20 605.10 L 188.30 603.00 L 187.70 598.40 L 188.10 593.50 L 190.10 580.30 L 192.50 567.10 L 195.30 554.10 L 198.50 541.10 L 202.10 528.20 L 206.20 515.50 L 210.60 502.90 L 215.50 490.50 L 220.70 478.20 L 226.40 466.10 L 232.40 454.10 L 238.80 442.40 L 242.30 436.80 L 245.90 431.60 L 249.60 427.00 L 253.60 422.80 L 257.70 419.00 L 263.20 414.60 L 269.00 410.90 L 274.90 407.60 L 281.10 405.00 L 287.50 402.80 L 294.10 401.10 L 300.80 399.90 L 307.70 399.20 L 314.70 398.90 L 328.80 399.50 L 336.00 400.40 L 345.60 402.10 L 355.10 404.50 L 364.60 407.40 Z" fill="#3a8c6e" fill-rule="nonzero" group-id="6,15" node-id="54" stroke="none" target-height="214.30002" target-width="298.2" target-x="187.7" target-y="398.9"></path><path d="M 494.40 222.30 L 505.00 223.40 L 515.60 225.10 L 522.60 226.50 L 536.30 230.30 L 543.00 232.80 L 549.40 235.60 L 555.60 238.80 L 561.60 242.40 L 567.20 246.50 L 572.60 251.10 L 578.70 257.20 L 584.10 263.50 L 588.80 269.80 L 593.10 276.40 L 597.00 283.30 L 603.70 297.70 L 609.70 313.60 L 611.80 320.80 L 615.40 337.70 L 617.30 352.20 L 617.80 360.10 L 617.50 376.00 L 616.90 383.80 L 615.90 390.80 L 614.00 400.20 L 605.40 434.10 L 601.10 455.10 L 599.90 458.90 L 596.70 465.90 L 594.60 469.00 L 592.10 471.70 L 589.10 474.10 L 585.50 476.10 L 581.50 477.50 L 577.40 478.60 L 560.60 481.70 L 554.40 484.20 L 550.00 487.40 L 547.90 489.70 L 541.10 500.30 L 539.10 502.60 L 536.70 504.60 L 534.10 506.20 L 531.20 507.30 L 525.10 508.50 L 521.90 508.50 L 518.70 508.20 L 512.60 506.60 L 508.30 504.70 L 500.30 499.70 L 489.50 490.50 L 483.60 484.50 L 480.40 479.90 L 478.50 475.10 L 478.20 472.60 L 478.50 469.90 L 480.00 465.90 L 482.80 460.00 L 483.70 455.70 L 483.30 451.10 L 480.10 440.30 L 479.70 436.90 L 479.90 434.00 L 480.60 431.20 L 481.70 428.60 L 483.30 426.10 L 486.20 422.60 L 497.30 411.70 L 502.00 405.90 L 504.10 402.60 L 505.90 399.00 L 507.30 395.00 L 508.40 390.40 L 508.90 385.60 L 508.90 380.10 L 508.30 373.70 L 507.20 367.80 L 505.70 362.50 L 504.00 357.80 L 499.70 349.30 L 497.10 345.50 L 491.50 339.00 L 487.30 335.10 L 482.90 331.70 L 478.40 328.80 L 471.40 324.90 L 464.60 321.70 L 445.90 313.90 L 435.30 308.20 L 414.50 298.70 L 407.80 295.40 L 401.90 291.80 L 398.30 289.10 L 395.30 286.20 L 392.80 283.20 L 391.30 280.60 L 390.30 277.90 L 389.60 275.00 L 389.40 271.70 L 389.60 268.60 L 390.30 265.10 L 391.70 261.10 L 393.70 256.50 L 395.90 252.80 L 398.50 249.30 L 401.40 246.10 L 404.70 243.10 L 409.40 239.50 L 414.70 236.30 L 420.40 233.40 L 432.50 228.70 L 439.00 226.90 L 448.90 224.80 L 458.80 223.20 L 468.60 222.30 L 477.80 221.90 L 486.80 221.90 L 494.40 222.30 Z" fill="#070102" fill-rule="nonzero" group-id="6,15" node-id="56" stroke="none" target-height="286.6" target-width="228.4" target-x="389.4" target-y="221.9"></path><path d="M 416.30 320.70 L 414.80 319.40 L 413.10 318.50 L 411.20 318.10 L 409.20 318.00 L 407.20 318.30 L 405.40 319.00 L 402.30 321.30 L 399.50 325.40 L 398.00 329.80 L 398.00 333.10 L 398.50 334.60 L 399.30 335.80 L 401.60 337.30 L 403.70 337.70 L 405.90 337.60 L 408.00 337.00 L 409.90 335.90 L 411.40 334.40 L 413.80 330.80 L 416.20 324.60 L 416.60 321.90 L 416.50 321.00 L 415.50 319.80" fill="#080103" fill-rule="nonzero" group-id="6,15" node-id="58" stroke="none" target-height="19.700012" target-width="18.600006" target-x="398" target-y="318"></path><path d="M 469.60 348.30 L 468.30 347.10 L 466.80 346.40 L 463.20 345.90 L 459.80 346.80 L 457.60 348.30 L 455.80 350.20 L 454.50 352.50 L 453.60 355.10 L 453.10 358.00 L 453.20 359.50 L 454.40 361.90 L 456.50 363.30 L 458.30 363.70 L 460.30 363.60 L 462.20 363.10 L 463.90 362.10 L 465.30 360.80 L 467.40 357.50 L 469.50 351.90 L 469.90 349.50 L 469.70 348.40 L 468.90 347.60" fill="#080103" fill-rule="nonzero" group-id="6,15" node-id="60" stroke="none" target-height="17.800018" target-width="16.799988" target-x="453.1" target-y="345.9"></path><path d="M 399.50 490.50 L 393.70 484.50 L 385.80 474.60 L 380.00 468.70 L 376.60 466.30 L 373.10 464.50 L 369.30 463.30 L 365.30 462.70 L 361.40 462.70 L 356.30 463.80 L 353.80 464.70 L 349.30 467.40 L 347.30 469.10 L 345.50 471.10 L 342.70 475.50 L 341.60 478.00 L 340.50 483.10 L 340.60 486.90 L 341.00 488.70 L 342.50 492.20 L 345.90 496.80 L 348.90 502.60 L 351.00 510.60 L 353.90 525.50 L 355.50 530.10 L 357.50 534.40 L 359.90 538.40 L 362.70 542.20 L 365.90 545.70 L 369.40 548.90 L 373.10 551.80 L 377.20 554.50 L 382.90 557.50 L 388.90 560.00 L 395.20 561.90 L 401.70 563.30 L 408.10 563.90 L 414.60 564.00 L 418.70 563.70 L 426.70 562.00 L 430.50 560.60 L 435.10 557.90 L 437.20 556.20 L 439.40 553.80 L 441.20 551.20 L 444.20 545.50 L 446.80 537.40 L 447.70 532.70 L 448.30 527.60 L 448.50 522.50 L 448.20 517.40 L 446.90 511.00 L 444.50 505.40 L 442.90 503.00 L 440.90 500.90 L 438.60 499.20 L 436.30 498.00 L 433.80 497.30 L 429.80 496.60 L 416.80 496.40 L 412.40 496.00 L 408.00 495.10 L 405.20 494.10 L 402.30 492.60 L 399.50 490.50 Z" fill="#30406e" fill-rule="nonzero" group-id="6,15" node-id="62" stroke="none" target-height="101.29999" target-width="108" target-x="340.5" target-y="462.7"></path><path d="M 389.20 371.10 L 389.10 372.40 L 388.20 374.20 L 388.40 375.50 L 389.50 379.80 L 392.30 386.80 L 395.60 391.40 L 397.60 393.20 L 400.00 394.60 L 402.70 395.60 L 406.10 396.10 L 410.30 396.10 L 414.70 395.70 L 419.20 394.80 L 423.50 393.50 L 429.90 390.40 L 433.40 387.40 L 431.60 384.80 L 430.20 383.90 L 427.90 383.00 L 425.30 382.50 L 422.60 382.40 L 415.30 383.20 L 411.20 383.10 L 407.50 382.50 L 404.00 381.40 L 400.80 379.90 L 397.70 378.00 L 389.20 371.10" fill="#070102" fill-rule="nonzero" group-id="6,15" node-id="64" stroke="none" target-height="25" target-width="45.19998" target-x="388.2" target-y="371.1"></path></g></g></svg>