<?xml version="1.0" standalone="no"?><!DOCTYPE svg PUBLIC "-//W3C//DTD SVG 1.1//EN" "http://www.w3.org/Graphics/SVG/1.1/DTD/svg11.dtd"><svg height="142" node-id="1" sillyvg="true" template-height="142" template-width="149" version="1.1" viewBox="0 0 149 142" width="149" xmlns="http://www.w3.org/2000/svg" xmlns:xlink="http://www.w3.org/1999/xlink"><defs node-id="29"><clipPath id="clip-path" node-id="3"><path d="M 112.70 18.30 L 109.80 19.70 L 107.20 21.50 L 105.00 23.70 L 103.30 26.20 L 102.00 29.00 L 101.20 32.00 L 100.90 35.00 L 101.10 38.20 L 102.00 41.30 L 103.40 44.30 L 105.20 46.90 L 107.40 49.00 L 109.90 50.80 L 112.70 52.10 L 115.70 52.90 L 118.80 53.20 L 121.90 52.90 L 125.10 52.10 L 128.00 50.70 L 130.60 48.90 L 132.80 46.70 L 134.50 44.10 L 135.80 41.40 L 136.60 38.40 L 136.90 35.30 L 136.60 32.20 L 135.80 29.00 L 134.40 26.00 L 132.60 23.50 L 130.40 21.30 L 127.90 19.60 L 125.10 18.30 L 122.10 17.50 L 119.00 17.20 L 115.90 17.40 L 112.70 18.30 Z" fill="#000000" fill-rule="nonzero" id="路径_1850" node-id="4" stroke="none" target-height="36" target-width="35.999992" target-x="100.9" target-y="17.2"></path></clipPath></defs><g node-id="31"><g node-id="41"><path d="M 124.70 118.90 L 32.40 118.90 L 30.90 118.50 L 29.60 117.60 L 28.80 116.30 L 28.60 114.70 L 28.60 50.10 L 128.60 50.10 L 128.60 114.70 L 128.30 116.30 L 127.50 117.60 L 126.30 118.50 L 124.70 118.90 Z M 128.60 46.70 L 28.60 46.70 L 28.60 34.80 L 28.80 33.20 L 29.60 31.90 L 30.90 31.00 L 32.40 30.60 L 124.70 30.60 L 126.30 31.00 L 127.50 31.90 L 128.30 33.20 L 128.60 34.80 L 128.60 46.70 Z M 40.70 40.70 L 42.10 42.20 L 42.90 42.50 L 43.60 42.20 L 43.90 41.40 L 43.60 40.70 L 42.10 39.30 L 43.90 37.30 L 43.60 36.30 L 42.60 36.10 L 40.70 37.80 L 38.80 36.10 L 38.20 36.10 L 37.50 36.80 L 37.80 37.80 L 39.20 39.30 L 37.80 40.70 L 37.50 41.40 L 37.80 42.20 L 38.50 42.50 L 39.20 42.20 L 40.70 40.70 Z M 61.30 36.10 L 60.10 36.30 L 59.20 37.00 L 58.50 38.00 L 58.30 39.20 L 58.50 40.40 L 59.20 41.40 L 60.10 42.00 L 61.30 42.30 L 62.60 42.00 L 63.50 41.40 L 64.20 40.40 L 64.40 39.20 L 64.20 38.00 L 63.50 37.00 L 62.60 36.30 L 61.30 36.10 Z M 51.30 36.10 L 50.40 36.20 L 49.00 37.20 L 48.30 38.90 L 48.60 40.60 L 49.20 41.40 L 50.70 42.20 L 52.50 42.00 L 53.30 41.50 L 54.30 40.10 L 54.40 39.20 L 54.20 38.00 L 53.50 37.00 L 52.60 36.30 L 51.30 36.10 Z" fill="#e2e5f1" fill-opacity="0.8" fill-rule="nonzero" group-id="1,11" id="减去_3" node-id="8" stroke="none" target-height="88.3" target-width="100.00001" target-x="28.6" target-y="30.6"></path></g></g><g node-id="32"><g node-id="42"><g node-id="47"><path d="M 142.50 86.90 L 141.00 86.70 L 138.70 85.30 L 137.30 83.00 L 137.10 81.50 L 137.80 78.70 L 139.80 76.80 L 141.00 76.30 L 142.50 76.00 L 145.20 76.80 L 147.20 78.70 L 147.90 81.50 L 147.70 83.00 L 146.30 85.30 L 144.00 86.70 L 142.50 86.90 Z M 142.50 77.90 L 141.10 78.20 L 140.00 79.00 L 139.20 80.10 L 138.90 81.50 L 139.20 82.90 L 140.00 84.00 L 141.10 84.80 L 142.50 85.00 L 143.90 84.80 L 145.00 84.00 L 145.80 82.90 L 146.10 81.50 L 145.80 80.10 L 145.00 79.00 L 143.90 78.20 L 142.50 77.90 Z" fill="#a4bfff" fill-opacity="0.8" fill-rule="nonzero" group-id="2,12,17" id="路径_2292" node-id="11" stroke="none" target-height="10.900002" target-width="10.799988" target-x="137.1" target-y="76"></path></g></g></g><g node-id="33"><g node-id="43"><g node-id="48"><path d="M 28.50 54.10 L 20.20 45.80 L 28.50 37.60 L 36.70 45.80 Z M 23.10 45.80 L 28.50 51.30 L 34.00 45.80 L 28.50 40.40 Z" fill="#c2c8d8" fill-opacity="0.8" fill-rule="nonzero" group-id="3,13,18" id="路径_2294" node-id="14" stroke="none" target-height="16.5" target-width="16.5" target-x="20.2" target-y="37.6"></path></g></g></g><g node-id="34"><path d="M 87.20 8.60 L 86.50 8.30 L 86.20 7.60 L 86.20 5.40 L 84.00 5.40 L 83.30 5.10 L 83.00 4.40 L 83.30 3.50 L 84.00 3.20 L 86.20 3.20 L 86.20 1.00 L 86.50 0.30 L 87.20 0.00 L 88.10 0.30 L 88.40 1.00 L 88.40 3.20 L 90.60 3.20 L 91.30 3.50 L 91.60 4.20 L 91.30 5.10 L 90.60 5.40 L 88.40 5.40 L 88.40 7.60 L 88.10 8.30 L 87.40 8.60 Z" fill="#417aff" fill-opacity="0.8" fill-rule="nonzero" group-id="4" id="联合_15" node-id="15" stroke="none" target-height="8.6" target-width="8.599998" target-x="83" target-y="0"></path></g><g node-id="35"><path d="M 72.30 139.90 L 71.60 139.60 L 71.30 138.90 L 71.30 135.30 L 67.70 135.30 L 67.00 135.00 L 66.70 133.20 L 67.00 132.50 L 67.70 132.20 L 71.30 132.20 L 71.30 128.60 L 71.60 127.90 L 73.40 127.60 L 74.10 127.90 L 74.40 128.60 L 74.40 132.20 L 78.00 132.20 L 78.70 132.50 L 79.00 133.20 L 78.70 135.00 L 78.00 135.30 L 74.40 135.30 L 74.40 138.90 L 74.10 139.60 L 73.40 139.90 Z" fill="#c2c8d8" fill-opacity="0.8" fill-rule="nonzero" group-id="5" id="联合_16" node-id="16" stroke="none" target-height="12.299995" target-width="12.300003" target-x="66.7" target-y="127.6"></path></g><g node-id="36"><path d="M 12.50 30.60 L 11.80 30.30 L 11.50 29.60 L 11.50 26.50 L 8.40 26.50 L 7.70 26.20 L 7.40 25.50 L 7.70 24.10 L 8.40 23.80 L 11.50 23.80 L 11.50 20.80 L 11.80 20.10 L 12.50 19.80 L 13.90 20.10 L 14.20 20.80 L 14.20 23.80 L 17.20 23.80 L 17.90 24.10 L 18.20 24.80 L 17.90 26.20 L 17.20 26.50 L 14.20 26.50 L 14.20 29.60 L 13.90 30.30 L 13.20 30.60 Z" fill="#f1f3f8" fill-opacity="0.8" fill-rule="nonzero" group-id="6" id="联合_17" node-id="17" stroke="none" target-height="10.800001" target-width="10.800001" target-x="7.4" target-y="19.8"></path></g><g node-id="37"><path d="M 87.90 73.00 L 91.60 73.20 L 92.50 74.00 L 92.60 74.60 L 92.60 93.30 L 92.10 94.40 L 91.00 94.80 L 66.10 94.80 L 65.00 94.40 L 64.60 93.30 L 64.70 74.00 L 65.50 73.20 L 69.30 73.00 L 69.40 69.80 L 69.80 68.20 L 70.50 66.80 L 72.00 64.90 L 73.90 63.40 L 76.90 62.30 L 80.30 62.30 L 83.30 63.40 L 85.20 64.90 L 86.70 66.80 L 87.80 69.80 L 87.90 73.00 Z M 77.00 85.10 L 77.00 88.60 L 80.10 88.60 L 80.10 85.10 L 80.90 84.40 L 81.70 82.60 L 81.60 81.60 L 80.50 79.90 L 78.60 79.30 L 77.60 79.40 L 76.00 80.60 L 75.50 82.60 L 76.20 84.40 L 77.00 85.10 Z M 84.80 73.00 L 84.60 69.80 L 84.00 68.30 L 83.00 67.10 L 81.70 66.10 L 80.30 65.50 L 78.60 65.30 L 76.90 65.50 L 75.50 66.10 L 74.20 67.10 L 73.20 68.30 L 72.60 69.80 L 72.40 71.50 L 72.40 73.00 L 84.80 73.00 Z" fill="#ffffff" fill-opacity="0.8" fill-rule="nonzero" group-id="7" id="路径_2342" node-id="18" stroke="none" target-height="32.500004" target-width="28" target-x="64.6" target-y="62.3"></path></g><g node-id="38"><path d="M 41.40 83.70 L 38.00 85.30 L 34.60 86.50 L 31.00 87.40 L 27.30 87.90 L 19.20 87.70 L 15.30 94.80 L 13.10 97.70 L 10.60 100.40 L 4.20 105.50 L 4.30 106.30 L 14.80 124.40 L 16.20 126.30 L 18.00 128.00 L 20.40 129.40 L 25.70 131.60 L 33.10 132.90 L 37.30 132.80 L 40.10 132.50 L 44.20 131.00 L 47.50 128.20 L 49.20 126.00 L 51.30 122.40 L 53.10 118.20 L 53.90 115.20 L 54.80 109.60 L 54.70 106.80 L 54.10 104.40 L 53.20 102.20 L 42.80 84.10 L 42.10 83.60 L 41.40 83.70 Z M 39.90 111.30 L 40.70 111.20 L 41.40 111.70 L 42.60 113.80 L 42.70 114.60 L 42.20 115.20 L 38.80 117.20 L 41.10 121.40 L 41.20 122.20 L 40.80 122.80 L 38.60 124.00 L 37.80 124.10 L 37.20 123.60 L 30.80 112.60 L 28.70 112.80 L 26.70 112.50 L 24.90 111.80 L 23.20 110.70 L 21.90 109.20 L 20.90 107.40 L 20.40 105.30 L 20.40 103.30 L 20.90 101.40 L 21.80 99.60 L 23.00 98.10 L 24.70 96.90 L 26.70 96.10 L 28.70 95.80 L 30.60 96.00 L 32.50 96.60 L 34.20 97.70 L 35.70 99.20 L 36.70 101.10 L 37.20 103.00 L 37.30 105.00 L 36.90 106.90 L 36.10 108.70 L 34.80 110.40 L 36.50 113.30 L 39.90 111.30 Z" fill="#417aff" fill-opacity="0.8" fill-rule="nonzero" group-id="8" id="路径_2343" node-id="20" stroke="none" target-height="49.299995" target-width="50.6" target-x="4.2" target-y="83.6"></path><g node-id="44"><path d="M 25.40 106.30 L 26.20 107.20 L 28.20 108.20 L 30.50 107.90 L 32.10 106.40 L 32.60 105.30 L 32.50 103.10 L 31.20 101.20 L 30.20 100.60 L 28.00 100.50 L 26.90 100.90 L 25.70 102.00 L 25.00 103.30 L 24.90 104.80 L 25.40 106.30 Z" fill="#417aff" fill-opacity="0.8" fill-rule="nonzero" group-id="8,14" id="路径_2344" node-id="21" stroke="none" target-height="7.699997" target-width="7.699999" target-x="24.9" target-y="100.5"></path></g></g><g node-id="39"><g node-id="45"><path d="M 125.10 52.10 L 122.70 52.80 L 118.10 53.20 L 115.80 52.90 L 111.30 51.50 L 107.40 49.00 L 105.60 47.30 L 104.10 45.50 L 102.00 41.30 L 101.30 39.10 L 100.90 34.40 L 101.70 29.80 L 102.60 27.60 L 104.30 24.70 L 106.30 22.30 L 108.70 20.40 L 111.30 18.80 L 114.20 17.80 L 117.20 17.30 L 120.30 17.20 L 123.40 17.80 L 126.50 18.90 L 129.40 20.50 L 131.70 22.60 L 133.70 24.90 L 135.20 27.60 L 136.30 30.50 L 136.80 33.50 L 136.90 36.60 L 136.30 39.70 L 135.20 42.80 L 134.10 44.90 L 131.10 48.50 L 127.20 51.10 L 125.10 52.10 Z M 111.70 36.00 L 111.10 36.60 L 111.10 37.40 L 111.70 38.00 L 112.50 38.10 L 118.30 36.00 L 118.90 35.40 L 118.90 34.50 L 118.40 33.90 L 117.50 33.90 L 111.70 36.00 Z M 115.70 28.80 L 114.70 29.80 L 114.60 31.30 L 115.60 32.40 L 117.10 32.50 L 118.20 31.50 L 118.20 30.00 L 117.20 28.90 L 115.70 28.80 Z M 109.90 30.90 L 108.80 31.90 L 108.70 33.40 L 109.70 34.50 L 111.20 34.60 L 112.30 33.60 L 112.40 32.10 L 111.40 31.00 L 109.90 30.90 Z" fill="#697391" fill-opacity="0.8" fill-rule="nonzero" group-id="9,15" id="减去_7" node-id="23" stroke="none" target-height="36" target-width="35.999992" target-x="100.9" target-y="17.2"></path></g><g clip-path="url(#clip-path)" group-id="9,16" id="蒙版组_4" node-id="24"><path d="M 112.60 29.30 L 113.40 33.80 L 112.60 38.10 L 110.40 41.90 L 108.90 43.40 L 105.00 45.70 L 100.40 46.50 L 98.30 46.30 L 94.20 44.80 L 90.80 42.00 L 88.50 38.10 L 87.70 33.50 L 88.50 29.20 L 90.70 25.40 L 92.20 23.90 L 96.20 21.60 L 100.70 20.80 L 105.00 21.60 L 108.80 23.80 L 110.30 25.30 L 112.60 29.30 Z" fill="#ffffff" fill-opacity="0.128" fill-rule="nonzero" group-id="9,16,19" id="椭圆_6" node-id="25" stroke="none" target-height="25.7" target-width="25.700005" target-x="87.7" target-y="20.8"></path><path d="M 141.70 37.80 L 142.20 39.90 L 142.10 41.80 L 141.50 43.70 L 140.40 45.40 L 139.00 46.70 L 137.10 47.70 L 135.10 48.10 L 133.10 48.00 L 131.20 47.40 L 129.60 46.40 L 128.20 44.90 L 127.20 43.10 L 126.80 41.10 L 126.90 39.10 L 127.50 37.20 L 128.60 35.50 L 130.00 34.20 L 131.90 33.20 L 133.90 32.80 L 135.90 32.90 L 137.80 33.50 L 139.40 34.50 L 140.80 36.00 L 141.70 37.80 Z" fill="#2a3a60" fill-opacity="0.128" fill-rule="nonzero" group-id="9,16,20" id="椭圆_5" node-id="26" stroke="none" target-height="15.299999" target-width="15.399994" target-x="126.8" target-y="32.8"></path></g></g><path d="M 132.60 17.60 L 136.60 16.70 L 139.60 16.60 L 141.40 16.80 L 142.70 17.40 L 143.60 18.30 L 144.00 19.40 L 144.10 20.70 L 143.70 22.30 L 141.10 26.90 L 135.50 33.10 L 128.00 39.20 L 123.40 42.40 L 118.60 45.30 L 110.00 49.60 L 102.10 52.20 L 96.90 52.70 L 95.20 52.40 L 94.00 51.80 L 93.20 51.00 L 92.80 49.80 L 92.80 48.30 L 94.50 44.30 L 98.20 39.40" fill="none" group-id="10" id="路径_2345" node-id="27" stroke="#c2c8d8" stroke-dasharray="2.0009458 2.0009458" stroke-linecap="butt" stroke-opacity="0.8" stroke-width="1.0004729" target-height="36.1" target-width="51.300003" target-x="92.8" target-y="16.6"></path></svg>