<?xml version="1.0" encoding="utf-8"?>
<!-- Generator: Adobe Illustrator 26.4.1, SVG Export Plug-In . SVG Version: 6.00 Build 0) -->
<svg version="1.1" id="图层_1" xmlns="http://www.w3.org/2000/svg" xmlns:xlink="http://www.w3.org/1999/xlink" x="0px" y="0px" viewBox="0 0 258.2 200" style="enable-background:new 0 0 258.2 200;" xml:space="preserve">
	<style type="text/css">
		.st0{fill:#000000;}
	</style>
	<g>
		<path class="st0" d="M100.6,116.8c-5.4,0-9.8,4.4-9.8,9.8c0,5.4,4.4,9.8,9.8,9.8c5.4,0,9.8-4.4,9.8-9.8
		C110.4,121.2,106,116.8,100.6,116.8z" />
		<path class="st0" d="M151.5,133L151.5,133c-5.5,0-9.9,4.4-9.9,9.8s4.4,9.8,9.8,9.8c5.4,0,9.8-4.4,9.8-9.8
		C161.2,137.4,156.9,133,151.5,133z" />
		<path class="st0" d="M233.8,134.4l-1,1.5h0L233.8,134.4L233.8,134.4c-1.9-1.2-4-2-6.2-2.5c7.7-20,6.3-37.2-4.2-52.5
		c-20.2-29.6-49.2-45-86.2-45.8c-10.7-0.2-23.3,0.3-35.6,0.8l-0.8,0c-12.3,0.5-28.4,1.1-41.1,0.6c0.8-0.4,1.6-0.8,2.3-1.1l0.2-0.1
		C72,29,80.5,24.9,77.4,17c-1.6-4.5-6.1-6.9-13.2-7c-14.3-0.3-43.8,7.7-49.4,21.7c-3.2,8-3.8,23.3,27.3,36.6
		c12.3,5.2,47.3,11.7,60.8,13c1.7,0.2,3.3,0.4,4.9,0.8c-1.4,0.9-2.8,1.9-4.1,2.8l-1.2,0.8c-6.4-3.5-15.2-6.3-22-1.7
		c-3,1.9-4.8,5.2-5,8.7c-0.1,3.1,1.2,6.5,3.9,9.9c-10.7,8.7-17.2,15.5-19.8,20.9c-3.3,7.6-4.7,20,1.5,32.1
		c7.7,15.1,24.6,25.7,50.3,31.3c9.3,2,18.8,3,28.1,3c19.1,0,37.5-4.2,53-12.4c9.5-5,17.2-11.3,21.3-17.4c0.7,0.2,1.4,0.4,2.1,0.7
		c1.6,0.5,3.2,1,4.7,1.5c5.4,1.9,11.4,1.6,16.1-0.7l0.3-0.2c3.5-1.8,6.1-4.9,7.3-8.7C247.3,142.8,238.5,137.3,233.8,134.4z
		 M225.1,149.5c-1.6-0.6-3.4-1.1-5.2-1.7c-1.9-0.6-7.8-2.4-8.8-3.3c0,0-0.1-0.1-0.1-0.1c1.8,0.8,3.9,1.2,6.1,1.1h0.3l0.3,0
		c0,0,0,0,0,0c0.1,0,0.4,0,0.6-0.1c4.2-0.8,6.6-0.5,8.7,0.8c0.9,0.5,3.3,2.1,4,2.9c-0.1,0.1-0.3,0.2-0.5,0.4
		C229.1,150.1,226.9,150.2,225.1,149.5z M201.6,143.2c-3,2.3-3.6,6.6-1.3,9.7c0.3,0.4,0.7,0.8,1,1.1c-4.5,5.3-14.5,12.2-28,16.9
		c-12.7,4.4-33.2,8.4-59.1,2.7c-21.2-4.7-35.4-13-41-24.1c-4-7.8-3.1-15.8-1.2-20.2c5-10.5,42.3-36.5,74.9-55.7
		c3.2-1.9,4.3-6.1,2.4-9.4c-1-1.7-2.7-2.9-4.6-3.3c-0.5-0.1-0.9-0.1-1.4-0.1c-1.2,0-2.4,0.4-3.5,1.1c-7.3,4.3-13.8,8.3-18.2,11.1
		c-3.4-2.1-9-4.5-17.5-5.4c-14-1.4-46.4-7.6-56.8-12C41.8,53.3,24.1,45,27.4,36.7c0.1-0.3,0.3-0.6,0.6-1c0,0.1,0,0.2,0,0.3
		c0,1.8,0.6,3.5,1.9,4.9c2,2.1,4.8,3.7,8.6,4.9l0.1,0c0.1,0,0.2,0.1,0.3,0.1c12.4,3.8,33.9,3.3,63.1,2.1l1.7-0.1
		c12.1-0.5,23.5-0.9,33.1-0.7c32.8,0.7,57.4,13.7,75.3,39.8c5.7,8.3,10.9,20.7,1.6,42.6c-0.1-0.1-0.1-0.2-0.2-0.2
		c-2.4-2.9-6.6-3.4-9.6-1.1c-1.4,1.1-2.3,2.8-2.5,4.6c-0.2,1.8,0.3,3.6,1.4,5c0.5,0.6,2,2.4,4.2,4
		C205.1,141.7,203.2,142,201.6,143.2z M39.4,31.1c-0.6-0.6-1.3-1-2.1-1.3c0.9-0.4,2-0.8,3.1-1.3c2-0.7,3.9-1.4,5.9-2
		C43.8,27.9,41.5,29.4,39.4,31.1z" />
	</g>
</svg>
