<?xml version="1.0" encoding="utf-8"?>
<!-- Generator: Adobe Illustrator 26.4.1, SVG Export Plug-In . SVG Version: 6.00 Build 0)  -->
<svg version="1.1" id="图层_1" xmlns="http://www.w3.org/2000/svg" xmlns:xlink="http://www.w3.org/1999/xlink" x="0px" y="0px"
	 viewBox="0 0 200 200" style="enable-background:new 0 0 200 200;" xml:space="preserve">
<style type="text/css">
	.st0{fill:#FFFFFF;}
	.st1{fill:#F45665;}
	.st2{fill:#CECECE;}
	.st3{fill:#2D2424;}
</style>
<path class="st0" d="M0,0h200v200H0V0z"/>
<path class="st1" d="M0,0h200v56.7H0V0z"/>
<path class="st2" d="M62,40.7L62,40.7c4,0,6,2,6,6V66c0,4-2,6-6,6l0,0c-4,0-6-2-6-6V46.7C56,42.7,58,40.7,62,40.7z"/>
<path class="st2" d="M138,40.7L138,40.7c4,0,6,2,6,6V66c0,4-2,6-6,6l0,0c-4,0-6-2-6-6V46.7C132,42.7,134,40.7,138,40.7z"/>
<path class="st3" d="M69.5,86c-7.8,0-14,2.6-18.8,7.7l-0.3,0.4c-4.7,5.1-7.1,11.7-7.2,20h12.1c0.2-5.6,1.4-10,3.5-12.9l0.2-0.3
	c2.3-3.1,5.7-4.7,10.2-4.7c4.2,0,7.4,0.9,9.6,2.9c2.1,2,3.2,5,3.2,9c0,4.1-1.6,8.1-4.8,11.7c-2.1,2.2-5.4,5-10.1,8.3l-1.1,0.8
	c-7.8,5.4-13,9.6-15.6,12.6l-0.2,0.2c-4.9,5.6-7.3,12.1-7.3,19.7H94v-10.7H57.7c1.6-3.7,6.2-8.1,13.7-13l1.2-0.8
	c6.6-4.5,11.3-8.2,14.1-11.1c4.7-5.3,7.2-11.1,7.2-17.5c0-6.6-2.3-11.9-6.8-16C82.5,88.1,76.6,86,69.5,86L69.5,86z M130.3,86
	c-8.7,0-15.4,3.5-20.2,10.7c-4.6,6.8-6.8,16-6.8,27.6c0,11.6,2.3,20.8,6.8,27.6c4.8,7.1,11.5,10.7,20.2,10.7
	c8.6,0,15.3-3.6,20.2-10.7c4.6-6.8,6.8-16,6.8-27.6c0-11.6-2.3-20.8-6.8-27.6C145.6,89.5,138.9,86,130.3,86z M130.3,96.7
	c5.8,0,10,3.2,12.5,9.8c1.7,4.4,2.5,10.5,2.5,18.2c0,7.6-0.8,13.7-2.5,18.2c-2.5,6.5-6.7,9.8-12.5,9.8c-5.9,0-10.1-3.3-12.5-9.8
	c-1.7-4.5-2.5-10.6-2.5-18.2c0-7.5,0.8-13.4,2.3-17.8l0.2-0.4C120.2,99.9,124.4,96.7,130.3,96.7L130.3,96.7z"/>
</svg>
