<?xml version="1.0" encoding="utf-8"?>
<!-- Generator: Adobe Illustrator 26.4.1, SVG Export Plug-In . SVG Version: 6.00 Build 0)  -->
<svg version="1.1" id="图层_1" xmlns="http://www.w3.org/2000/svg" xmlns:xlink="http://www.w3.org/1999/xlink" x="0px" y="0px"
	 viewBox="0 0 200 200" style="enable-background:new 0 0 200 200;" xml:space="preserve">
<style type="text/css">
	.st0{fill:#FFFFFF;}
	.st1{fill:#231815;}
	.st2{fill:#F06262;}
	.st3{fill:#E81818;}
</style>
<rect class="st0" width="200" height="200"/>
<path class="st0" d="M42.1,100c0,32,25.9,57.9,57.9,57.9s57.9-25.9,57.9-57.9S132,42.1,100,42.1S42.1,68,42.1,100z"/>
<path class="st1" d="M100,161.9c-34.2,0-61.9-27.8-61.9-61.9S65.8,38.1,100,38.1s61.9,27.8,61.9,61.9S134.2,161.9,100,161.9z
	 M100,46.2c-29.7,0-53.8,24.1-53.8,53.8s24.1,53.8,53.8,53.8s53.8-24.1,53.8-53.8S129.7,46.2,100,46.2z"/>
<path d="M132.5,121.6c-0.8,0-1.7-0.2-2.4-0.6l-32.5-16.2c-1.8-0.9-3-2.8-3-4.8V64.3c0-3,2.4-5.4,5.4-5.4c3,0,5.4,2.4,5.4,5.4v32.4
	l29.5,14.7c2.7,1.3,3.8,4.6,2.4,7.3C136.4,120.5,134.5,121.6,132.5,121.6L132.5,121.6z"/>
<path class="st2" d="M90.6,100.5c0,5.1,4.1,9.2,9.2,9.2s9.2-4.1,9.2-9.2c0-5.1-4.1-9.2-9.2-9.2C94.7,91.3,90.6,95.4,90.6,100.5
	C90.6,100.5,90.6,100.5,90.6,100.5z"/>
<path class="st1" d="M99.8,112.3c-6.5,0-11.9-5.3-11.9-11.9s5.3-11.9,11.9-11.9s11.9,5.3,11.9,11.9S106.3,112.3,99.8,112.3z
	 M99.8,94c-3.6,0-6.5,2.9-6.5,6.5s2.9,6.5,6.5,6.5s6.5-2.9,6.5-6.5C106.2,96.9,103.3,94,99.8,94z"/>
<path class="st3" d="M70.9,132.6c-1.8,0-3.2-1.5-3.2-3.2c0-0.9,0.3-1.7,0.9-2.3l27.1-27.5c1.3-1.3,3.3-1.2,4.5,0.1
	c1.2,1.3,1.2,3.3,0,4.5l-27.1,27.5C72.5,132.3,71.7,132.6,70.9,132.6z"/>
</svg>
