<?xml version="1.0" encoding="UTF-8"?>
<svg id="uuid-5ac76011-ffb0-4207-8e4a-7edde52d6204" data-name=" 图层 1" xmlns="http://www.w3.org/2000/svg" xmlns:xlink="http://www.w3.org/1999/xlink" viewBox="0 0 96 96">
	<defs>
		<linearGradient id="uuid-fe843098-7ab3-4b1e-b398-172d4a6f522b" data-name="未命名的渐变" x1="8.9" y1="270.89" x2="88.3" y2="200.04" gradientTransform="translate(0 -188)" gradientUnits="userSpaceOnUse">
			<stop offset="0" stop-color="#3528bd" />
			<stop offset="1" stop-color="#5959ef" />
		</linearGradient>
	</defs>
	<rect width="96" height="96" style="fill: url(#uuid-fe843098-7ab3-4b1e-b398-172d4a6f522b);" />
	<g>
		<path d="M24.88,20.03h45.05c1.02,0,1.85,.83,1.85,1.85v1.72c0,1.02-.83,1.85-1.85,1.85H24.88c-1.02,0-1.85-.83-1.85-1.85v-1.72c0-1.02,.83-1.85,1.85-1.85Zm0,48.75h45.05c1.02,0,1.85,.83,1.85,1.85v1.72c0,1.02-.83,1.85-1.85,1.85H24.88c-1.02,0-1.85-.83-1.85-1.85v-1.72c0-1.02,.83-1.85,1.85-1.85Zm17.6-10.84h9.84c1.02,0,1.85,.83,1.85,1.85v1.72c0,1.02-.83,1.85-1.85,1.85h-9.84c-1.02,0-1.85-.83-1.85-1.85v-1.72c0-1.02,.83-1.85,1.85-1.85Z" style="fill: #fff;" />
		<path d="M28.45,22.74c0-1.49,1.21-2.71,2.71-2.71H63.66c1.49,0,2.71,1.21,2.71,2.71h0v12.19c0,.6-.2,1.19-.57,1.66l-7.3,9.38c-.52,.67-.52,1.61,0,2.27l7.3,9.38c.37,.48,.57,1.06,.57,1.66v12.19c0,1.49-1.21,2.71-2.71,2.71H31.15c-1.49,0-2.71-1.21-2.71-2.71h0v-12.19c0-.6,.2-1.19,.57-1.66l7.3-9.38c.52-.67,.52-1.61,0-2.27l-7.3-9.38c-.37-.48-.57-1.06-.57-1.66v-12.19h.01Zm5.42,4.56v6.06c0,.41,.14,.81,.39,1.14l8.52,10.96c.76,.98,.76,2.35,0,3.33l-8.52,10.96c-.25,.32-.39,.72-.39,1.14v6.06c0,1.02,.83,1.85,1.85,1.85h23.38c1.02,0,1.85-.83,1.85-1.85v-6.06c0-.41-.14-.81-.39-1.14l-8.52-10.96c-.76-.98-.76-2.35,0-3.33l8.52-10.96c.25-.32,.39-.72,.39-1.14v-6.06c0-1.02-.83-1.85-1.85-1.85h-23.38c-1.02,0-1.85,.83-1.85,1.85Z" style="fill: #fff;" />
		<path d="M45.26,42.68l-3.6-4.63c-.63-.81-.48-1.97,.32-2.6l1.35-1.05c.81-.63,1.97-.48,2.6,.32h0c.74,.95,2.18,.95,2.92,0h0c.63-.81,1.79-.95,2.6-.32l1.35,1.05c.81,.63,.95,1.79,.32,2.6l-3.6,4.63c-.92,1.18-2.62,1.39-3.8,.48-.18-.13-.34-.3-.48-.48h.02Z" style="fill: #fff;" />
	</g>
</svg>
