<?xml version="1.0" encoding="utf-8"?>
<!-- Generator: Adobe Illustrator 26.4.1, SVG Export Plug-In . SVG Version: 6.00 Build 0)  -->
<svg version="1.1" id="uuid-5ac76011-ffb0-4207-8e4a-7edde52d6204"
	 xmlns="http://www.w3.org/2000/svg" xmlns:xlink="http://www.w3.org/1999/xlink" x="0px" y="0px" viewBox="0 0 96 96"
	 style="enable-background:new 0 0 96 96;" xml:space="preserve">
<style type="text/css">
	.st0{fill:#FFFFFF;}
	.st1{opacity:0.8;fill:#7DC950;enable-background:new    ;}
	.st2{opacity:0.8;fill:#F4CD2A;enable-background:new    ;}
	.st3{opacity:0.8;fill:#EF801D;enable-background:new    ;}
</style>
<rect class="st0" width="96" height="96"/>
<path class="st1" d="M75.5,63.6H20.4c-5.2,0-9.5,4.2-9.5,9.4v2.8c0,5.2,4.3,9.4,9.5,9.4h55.3c5.2,0,9.5-4.2,9.5-9.4V73
	C85,67.7,80.8,63.6,75.5,63.6z"/>
<path class="st2" d="M75.5,37.2H20.4c-5.2,0-9.5,4.2-9.5,9.4v2.8c0,5.2,4.3,9.4,9.5,9.4h55.3c5.2,0,9.5-4.2,9.5-9.4v-2.8
	C85,41.3,80.8,37.2,75.5,37.2z"/>
<path class="st3" d="M75.5,10.9H20.4c-5.2,0-9.5,4.2-9.5,9.4v2.8c0,5.2,4.3,9.4,9.5,9.4h55.3c5.2,0,9.5-4.2,9.5-9.4v-2.8
	C85,15,80.8,10.9,75.5,10.9z"/>
</svg>
