<?xml version="1.0" encoding="utf-8"?>
<!-- Generator: Adobe Illustrator 26.4.1, SVG Export Plug-In . SVG Version: 6.00 Build 0)  -->
<svg version="1.1" id="图层_1" xmlns="http://www.w3.org/2000/svg" xmlns:xlink="http://www.w3.org/1999/xlink" x="0px" y="0px"
	 viewBox="0 0 200 200" style="enable-background:new 0 0 200 200;" xml:space="preserve">
<style type="text/css">
	.st0{opacity:0.25;}
	.st1{fill:#FFFFFF;}
</style>
<path class="st0" d="M187,100c0,48.1-38.9,87-87,87s-87-38.9-87-87s38.9-87,87-87S187,51.9,187,100z"/>
<path class="st1" d="M135,57.5H65c-8.3,0-15,6.7-15,14.9v55.1c0,7.9,6.2,14.4,14.2,14.9c0.3,0,0.6,0.1,0.9,0.1h70
	c3.6,0,7-1.3,9.8-3.6c3.3-2.8,5.3-6.9,5.3-11.3V72.4C150,64.2,143.2,57.5,135,57.5L135,57.5L135,57.5z M80.9,81.6c0,5-4,9-9,9
	s-9-4-9-9s4.1-9,9-9l0,0C77,72.6,80.9,76.6,80.9,81.6z M65,130.1c-1.1,0-2-0.9-2-2c0-0.4,0.1-0.7,0.3-1l11-19.6
	c1.2-2,3.7-2.7,5.7-1.5c0.6,0.4,1.2,0.9,1.5,1.5l7.6,13c1.1,1.9,3.6,2.6,5.5,1.4c0.6-0.3,1.1-0.8,1.4-1.4l15.5-26.7
	c1.2-2,3.8-2.7,5.8-1.5c0.6,0.4,1.1,0.9,1.5,1.5l18.3,32.6c0.7,1.2,0.2,2.7-1,3.4c-0.4,0.2-0.8,0.3-1.2,0.3H65L65,130.1z"/>
</svg>
