<?xml version="1.0" encoding="utf-8"?>
<!-- Generator: Adobe Illustrator 26.4.1, SVG Export Plug-In . SVG Version: 6.00 Build 0) -->
<svg version="1.1" id="uuid-a3f201fb-0f26-4ffa-a7d4-e480711949a6" xmlns="http://www.w3.org/2000/svg" xmlns:xlink="http://www.w3.org/1999/xlink" x="0px" y="0px" viewBox="0 0 192 192" style="enable-background:new 0 0 192 192;" xml:space="preserve">
	<style type="text/css">
		.st0{fill:#000000;}
		.st1{fill:#FFFFFF;}
	</style>
	<rect class="st0" width="192" height="192" />
	<path class="st1" d="M112.9,102c13.7,6.7,25.3,2.4,31.6-10.7C131.2,84.9,119.9,88.3,112.9,102 M49.3,91.3
	c3.6,6.3,7.9,11.7,15.2,13.3c5.8,1.3,11.3-0.1,16.6-2.6C73.9,88,62.4,85,49.3,91.3 M63.1,69.2c5.7,0,11.2,1.1,16.7,2.4
	c4.6,1.1,9.2,2.2,13.8,3.3c2.3,0.6,4.6,0.5,6.9,0c7.4-1.7,14.8-3.5,22.3-5c9.4-1.8,18.5-0.5,27.4,3c4,1.6,7.9,3.5,11.7,5.5
	s4.5,4.2,3.5,8.4c-2.8,11.8-8.2,22.3-15.9,31.6c-6,7.2-14.3,8.9-23.3,8.3c-3.6-1.7-7.5-3-10.8-5.1c-3.4-2.1-6.3-5.1-9.6-7.5
	c-2-1.5-4.1-2.9-6.1-4.3c-1.7-1.2-3.5-1.3-5.2,0c-2.8,2-5.8,3.9-8.3,6.2c-4.7,4.3-10,7.7-15.9,10c-3.7,1.5-7.5,1-11.3,0.4
	c-7.9-1.4-13.7-5.7-18-12.4c-5.4-8.5-10.2-17.3-12.4-27.3c-0.9-3.9-0.1-6.1,3.4-8.1C41.6,73,51.8,69.1,63.1,69.2" />
</svg>
