<?xml version="1.0" encoding="utf-8"?>
<!-- Generator: Adobe Illustrator 26.4.1, SVG Export Plug-In . SVG Version: 6.00 Build 0)  -->
<svg version="1.1" id="图层_1" xmlns="http://www.w3.org/2000/svg" xmlns:xlink="http://www.w3.org/1999/xlink" x="0px" y="0px"
	 viewBox="0 0 192 192" style="enable-background:new 0 0 192 192;" xml:space="preserve">
<style type="text/css">
	.st0{fill:#FFFFFF;}
	.st1{fill:#000;}
</style>
<rect class="st0" width="192" height="192"/>
<g>
	<path class="st1" d="M158.1,35.3H33.9c-4.9,0-8.8,4.2-8.8,9.3v102.7c0,5.2,4,9.3,8.9,9.3h124.2c4.9,0,8.9-4.2,8.9-9.3V44.6
		C167,39.5,163,35.3,158.1,35.3z M35.9,48.2c0-1.2,1-2.1,2.1-2.1h115.9c1.2,0,2.1,0.9,2.2,2.1c0,0,0,0,0,0V62c0,0.6-0.5,1.1-1.1,1.1
		c0,0,0,0,0,0H37c-0.6,0-1.1-0.5-1.1-1.1c0,0,0,0,0,0V48.2z M156.1,143.9c0,1.2-0.9,2.2-2.1,2.3H38c-1.2,0-2.2-1.1-2.1-2.3V75
		c0-0.6,0.5-1.1,1.1-1.1H155c0.6,0,1.1,0.5,1.1,1.1V143.9z"/>
	<path class="st1" d="M74.5,59.9c-2.6,0-4.7-2.1-4.7-4.7c0-2.6,2.1-4.7,4.7-4.7c2.6,0,4.7,2.1,4.7,4.7C79.1,57.7,77,59.8,74.5,59.9
		C74.5,59.8,74.5,59.8,74.5,59.9L74.5,59.9z M59.4,59.9c-2.6,0-4.7-2.1-4.7-4.7c0-2.6,2.1-4.7,4.7-4.7c2.6,0,4.7,2.1,4.7,4.7
		C64.1,57.7,62,59.8,59.4,59.9C59.4,59.8,59.4,59.8,59.4,59.9L59.4,59.9z M44.4,59.9c-2.6,0-4.7-2.1-4.7-4.7s2.1-4.7,4.7-4.7
		c2.6,0,4.7,2.1,4.7,4.7C49,57.7,47,59.8,44.4,59.9C44.4,59.9,44.4,59.9,44.4,59.9z"/>
	<path class="st1" d="M91.5,56.1v-1.9c0-2.6,1.3-3.9,3.9-3.9H148c2.6,0,3.9,1.3,3.9,3.9v1.9c0,2.6-1.3,3.9-3.9,3.9H95.4
		C92.8,60,91.5,58.7,91.5,56.1L91.5,56.1z"/>
</g>
</svg>
