<?xml version="1.0" encoding="UTF-8"?>
<svg id="uuid-b8d2686a-affd-4d38-8387-32b20130e965" data-name="图层 1" xmlns="http://www.w3.org/2000/svg" viewBox="0 0 192 192">
  <path d="M96,8.43C47.64,8.43,8.43,47.64,8.43,96s39.2,87.57,87.57,87.57,87.57-39.2,87.57-87.57S144.36,8.43,96,8.43Zm45.36,123.89c-4.95,7.1-10.95,12.13-18,15.09-7.05,2.96-15.68,4.44-25.91,4.44s-19.53-2.42-27.6-7.26c-8.07-4.84-14.37-11.59-18.89-20.26-4.52-8.66-6.78-18.54-6.78-29.62s2.34-19.96,7.02-28.25c4.68-8.29,11.14-14.74,19.37-19.37,8.23-4.63,17.57-6.94,28.01-6.94,7.42,0,14.26,1.32,20.5,3.95,6.24,2.64,11.73,6.38,16.46,11.22,1.94,2.04,3.6,4.28,5,6.7,1.4,2.42,2.85,5.3,4.36,8.64,.22,.64,.32,1.19,.32,1.61,0,.97-.38,1.8-1.13,2.5-.75,.7-1.72,1.16-2.9,1.37-1.94,.22-4.68,.75-8.23,1.61l-6.3,1.29c-1.19,.22-2.32,.11-3.39-.32-1.08-.43-1.94-1.13-2.58-2.1-.22-.54-.48-1.13-.81-1.78-.32-.65-.65-1.29-.97-1.94-.75-2.15-1.51-3.71-2.26-4.68-1.51-2.26-3.28-3.93-5.33-5-1.94-1.07-3.87-1.86-5.81-2.34-1.94-.49-4.2-.73-6.78-.73-5.6,0-10.79,1.48-15.58,4.44-4.79,2.96-8.58,7.21-11.38,12.75-2.8,5.54-4.2,11.97-4.2,19.29,0,11.19,2.96,19.83,8.88,25.91,5.92,6.08,13.66,9.12,23.25,9.12,4.52,0,9.17-1.02,13.96-3.07,4.79-2.04,8.47-4.73,11.06-8.07l.16-.32c1.08-1.94,1.61-3.6,1.61-5,0-1.83-.92-2.91-2.74-3.23-2.58-.32-4.79-.48-6.62-.48-1.19,0-2.45,.08-3.79,.24-1.35,.16-2.34,.24-2.99,.24-1.94,.32-3.98,.49-6.13,.49-1.19,0-2.26-.38-3.23-1.13-.97-.75-1.67-1.78-2.1-3.07l-2.91-10.17c-.32-.97-.49-1.78-.49-2.42,0-2.69,2.04-3.76,6.14-3.23,2.69,.43,6.4,.65,11.14,.65h13.07c2.37,0,5.97-.16,10.82-.49,1.94-.21,3.17-.32,3.71-.32,1.07,0,1.99,.16,2.74,.49,1.61,.75,2.72,1.69,3.31,2.82,.59,1.13,.97,2.77,1.13,4.92,.16,2.15,.24,6.13,.24,11.95,0,7.1-2.15,13.72-6.46,19.86Z"/>
</svg>