<?xml version="1.0" encoding="utf-8"?>
<!-- Generator: Adobe Illustrator 26.4.1, SVG Export Plug-In . SVG Version: 6.00 Build 0)  -->
<svg version="1.1" id="图层_1" xmlns="http://www.w3.org/2000/svg" xmlns:xlink="http://www.w3.org/1999/xlink" x="0px" y="0px"
	 viewBox="0 0 200 200" style="enable-background:new 0 0 200 200;" xml:space="preserve">
<style type="text/css">
	.st0{fill:#7F7F7F;}
</style>
<path class="st0" d="M152.2,70.9c0-0.2-0.1-0.4-0.1-0.6c-0.3-0.8-0.6-1.6-1.2-2.1l-19-19c-0.9-0.9-2.1-1.4-3.4-1.4H71.4
	c-1.3,0-2.5,0.5-3.4,1.4l-19,19c-0.6,0.6-0.9,1.4-1.2,2.1c-0.1,0.2-0.1,0.4-0.1,0.6s-0.1,0.4-0.1,0.6v67.1c0,7.5,6.2,13.7,13.7,13.7
	h77.3c7.5,0,13.7-6.2,13.7-13.7V71.4C152.3,71.3,152.2,71.1,152.2,70.9z M114.8,120.5L103.3,132c-0.9,0.9-2.1,1.4-3.4,1.4
	s-2.5-0.4-3.4-1.4l-11.4-11.4c-1.9-1.9-1.9-4.9,0-6.7c1.9-1.9,4.9-1.9,6.7,0l3.3,3.3V90.6c0-2.6,2.1-4.7,4.7-4.7s4.7,2.1,4.7,4.7
	v26.6l3.3-3.3c1.9-1.9,4.9-1.9,6.7,0C116.6,115.7,116.6,118.7,114.8,120.5z M63.9,66.8l9.5-9.5h53.2l9.5,9.5H63.9z"/>
</svg>
