<?xml version="1.0" encoding="utf-8"?>
<!-- Generator: Adobe Illustrator 26.4.1, SVG Export Plug-In . SVG Version: 6.00 Build 0)  -->
<svg version="1.1" id="图层_1" xmlns="http://www.w3.org/2000/svg" xmlns:xlink="http://www.w3.org/1999/xlink" x="0px" y="0px"
	 viewBox="0 0 200 200" style="enable-background:new 0 0 200 200;" xml:space="preserve">
<style type="text/css">
	.st0{fill:#F99D3A;}
	.st1{fill:#FFFFFF;}
</style>
<rect class="st0" width="200" height="200"/>
<path class="st1" d="M148.8,40.2h-29.2c-3-8.2-10.9-13.7-19.6-13.7c-9.1,0-16.8,5.8-19.6,13.7H51.2c-7.6-0.1-13.9,6-14,13.7
	c0,0,0,0,0,0v95.9c0,7.6,6.2,13.7,14,13.7h97.7c7.6,0.1,13.9-6,14-13.7c0,0,0,0,0,0V53.9C162.8,46.3,156.5,40.2,148.8,40.2z
	 M100,40.2c3.8,0,7,3,7,6.8c0,3.8-3.1,6.8-7,6.8c-3.8,0-6.9-3-7-6.8c0,0,0,0,0,0C93,43.2,96.2,40.2,100,40.2z M114,136.1H65.1v-13.7
	H114V136.1z M134.9,108.7H65.1V95h69.8V108.7z M134.9,81.3H65.1V67.6h69.8V81.3z"/>
</svg>
