<?xml version="1.0" encoding="utf-8"?>
<!-- Generator: Adobe Illustrator 26.4.1, SVG Export Plug-In . SVG Version: 6.00 Build 0)  -->
<svg version="1.1" id="图层_1" xmlns="http://www.w3.org/2000/svg" xmlns:xlink="http://www.w3.org/1999/xlink" x="0px" y="0px"
	 viewBox="0 0 200 200" style="enable-background:new 0 0 200 200;" xml:space="preserve">
<style type="text/css">
	.st0{fill:#FFFFFF;}
</style>
<rect width="200" height="200"/>
<path class="st0" d="M164.8,51.4H35.2c-8.9,0-16.2,7.3-16.2,16.2v64.8c0,8.9,7.3,16.2,16.2,16.2h129.6c8.9,0,16.2-7.3,16.2-16.2
	V67.6C181,58.7,173.7,51.4,164.8,51.4z M172.9,132.4c0,4.5-3.6,8.1-8.1,8.1H35.2c-4.5,0-8.1-3.6-8.1-8.1V67.6c0-4.5,3.6-8.1,8.1-8.1
	h129.6c4.5,0,8.1,3.6,8.1,8.1L172.9,132.4L172.9,132.4z"/>
<g>
	<rect x="86.2" y="105.7" transform="matrix(0.7071 -0.7071 0.7071 0.7071 -50.9943 95.6)" class="st0" width="7.4" height="7.4"/>
	<polygon class="st0" points="79.2,80.4 75.5,76.7 60.2,76.7 56.5,80.4 60.2,84.2 74.4,84.2 74.4,96.3 60.2,96.3 58.1,98.4 57.7,98 
		53.9,101.7 53.9,117 60.2,123.3 75.5,123.3 79.2,119.6 75.5,115.8 61.4,115.8 61.4,103.7 75.5,103.7 77.7,101.6 78.1,102 
		81.8,98.3 81.8,83 79.2,80.4 	"/>
	<polygon class="st0" points="40.5,83 40.5,98.3 42.2,100 40.5,101.7 40.5,117 44.2,120.7 47.9,117 47.9,101.7 46.2,100 47.9,98.3 
		47.9,83 44.2,79.3 	"/>
	<path class="st0" d="M123.1,80.4l-3.7-3.7h-15.3l-3.7,3.7l0,0L97.8,83v15.3l1.7,1.7l-1.7,1.7V117l6.3,6.3h15.3l6.3-6.3v-15.3
		l-1.7-1.7l1.7-1.7V83L123.1,80.4L123.1,80.4z M118.2,101.7v14.1h-13v-14.1l-1.7-1.7l1.7-1.7V84.2h13v14.1l1.7,1.7L118.2,101.7z"/>
	<rect x="86.2" y="86.9" transform="matrix(0.707 -0.7072 0.7072 0.707 -37.7613 90.1428)" class="st0" width="7.4" height="7.4"/>
	<path class="st0" d="M159.5,83l-6.3-6.3H138l-6.3,6.3v15.3l1.7,1.7l-1.7,1.7V117l6.3,6.3h15.3l6.3-6.3v-15.3l-1.7-1.7l1.7-1.7V83z
		 M152.1,101.7v14.1h-13v-14.1l-1.7-1.7l1.7-1.7V84.2h13v14.1l1.7,1.7L152.1,101.7z"/>
</g>
</svg>
