<?xml version="1.0" standalone="no"?><!DOCTYPE svg PUBLIC "-//W3C//DTD SVG 1.1//EN" "http://www.w3.org/Graphics/SVG/1.1/DTD/svg11.dtd"><svg t="1753427396842" class="icon" viewBox="0 0 1024 1024" version="1.1" xmlns="http://www.w3.org/2000/svg" p-id="13422" xmlns:xlink="http://www.w3.org/1999/xlink" width="200" height="200"><path d="M904.639471 808.385797l99.709591 100.477572a67.689031 67.689031 0 0 1 0 95.357696 66.409062 66.409062 0 0 1-94.568382 0l-99.70959-100.520238a67.689031 67.689031 0 0 1 0-95.31503 66.430395 66.430395 0 0 1 94.568381 0zM458.100929 0c252.644561 0 458.228926 207.162994 458.228926 461.791507 0 184.870199-108.882702 351.458173-277.518626 424.480408-3.583913 1.450632-7.295824 2.34661-11.0504 2.559938l-2.730601 1.087974a33.556522 33.556522 0 0 1-43.262954-19.263535c-6.634506-17.343581 1.919954-36.905775 19.114205-43.604279a177.595708 177.595708 0 0 0 98.813612-95.123035 179.494329 179.494329 0 0 0 3.114591-137.703338c-35.625806-92.584429-139.260635-138.62065-231.034417-102.824182a33.91918 33.91918 0 0 1-4.181232 1.322635l6.50651-2.837265a240.762182 240.762182 0 0 1-99.197603 21.396816c-29.887278 0-59.774555-5.589198-88.445863-16.746262-61.182521-23.722093-109.480021-70.163638-136.039379-130.59951a248.122004 248.122004 0 0 1-20.607502-117.010506 396.449086 396.449086 0 0 0-62.910479 214.757477c0 217.50941 175.56909 394.35847 391.307876 394.358469 18.516886 0 33.407193 15.124968 33.407193 33.663187 0 18.559551-14.890307 33.769851-33.407193 33.76985C205.563032 923.497682 0 716.356021 0 461.684843 0 284.366461 99.901586 124.199665 256.655131 46.889534c6.037187-3.32792 12.26637-6.421178 18.62355-9.258443 2.133282-0.959977 4.351895-1.685293 6.549175-2.154615l-2.133282 0.83198a33.343194 33.343194 0 0 1 43.881606 17.834236c7.253158 17.151586-0.703983 36.905775-17.706239 44.222931a395.083785 395.083785 0 0 0-19.796854 9.08778 178.662349 178.662349 0 0 0-77.992782 91.517789 179.963651 179.963651 0 0 0 3.306586 137.682006 178.427688 178.427688 0 0 0 99.005608 95.01637 176.01708 176.01708 0 0 0 136.636698-3.349252c2.303944-1.023975 4.671887-1.770624 7.03983-2.239946 124.562323-44.756252 263.033643 18.708881 311.117814 143.69786 14.399652 37.39643 19.476863 76.819477 15.359629 115.559874a395.8731 395.8731 0 0 0 68.862336-223.653261c0-217.402746-175.56909-394.35847-391.307877-394.35847a33.513857 33.513857 0 0 1-33.407192-33.663187c0-18.559551 14.996971-33.663186 33.407192-33.663186z" fill="#027FFE" p-id="13423"></path></svg>