<?xml version="1.0" encoding="utf-8"?>
<!-- Generator: Adobe Illustrator 26.4.1, SVG Export Plug-In . SVG Version: 6.00 Build 0)  -->
<svg version="1.1" id="图层_1" xmlns="http://www.w3.org/2000/svg" xmlns:xlink="http://www.w3.org/1999/xlink" x="0px" y="0px"
	 viewBox="0 0 200 200" style="enable-background:new 0 0 200 200;" xml:space="preserve">
<style type="text/css">
	.st0{fill:#694EB7;}
</style>
<path class="st0" d="M118.9,5.2l53.2,30.7c12,6.9,19.4,19.7,19.4,33.5v61.2c0,13.8-7.4,26.6-19.4,33.5l-53.2,30.7
	c-12,6.9-26.7,6.9-38.7,0L27,164.2c-12-6.9-19.4-19.7-19.4-33.5V69.4C7.6,55.5,15,42.8,27,35.8L80.2,5.2
	C92.2-1.7,106.9-1.7,118.9,5.2L118.9,5.2z M95.7,49.5C69.9,49.5,49,70.4,49,96.2s20.9,46.6,46.7,46.6c10.8,0,20.7-3.6,28.6-9.8
	l15.7,15.7c2.3,2.3,6,2.3,8.3,0l0,0c2.3-2.3,2.3-6,0-8.3l0,0l-15.7-15.7c6.4-8.2,9.8-18.2,9.8-28.6C142.4,70.4,121.5,49.5,95.7,49.5
	z M95.7,61.3c16.7,0,31,11.7,34.3,28.1c3.3,16.3-5.5,32.7-20.9,39.1s-33.2,1-42.5-12.8s-7.5-32.3,4.3-44.1
	C77.6,64.9,86.5,61.2,95.7,61.3z"/>
</svg>
