<?xml version="1.0" encoding="utf-8"?>
<!-- Generator: Adobe Illustrator 26.4.1, SVG Export Plug-In . SVG Version: 6.00 Build 0)  -->
<svg version="1.1" id="图层_1" xmlns="http://www.w3.org/2000/svg" xmlns:xlink="http://www.w3.org/1999/xlink" x="0px" y="0px"
	 viewBox="0 0 200 200" style="enable-background:new 0 0 200 200;" xml:space="preserve">
<style type="text/css">
	.st0{fill:#1677ff;}
</style>
<path class="st0" d="M176.5,160.9c4.3,4.3,4.3,11.3,0,15.6s-11.3,4.3-15.6,0l-18.5-18.6c-33.8,25.2-81.7,18.3-106.9-15.6
	S17.2,60.7,51,35.4S132.7,17.2,157.9,51c20.2,27.1,20.2,64.3,0,91.4L176.5,160.9L176.5,160.9z M96.7,151.1c30,0,54.4-24.3,54.4-54.4
	s-24.3-54.4-54.4-54.4c0,0,0,0,0,0c-30,0-54.4,24.4-54.4,54.4C42.3,126.7,66.7,151.1,96.7,151.1z"/>
</svg>
