<?xml version="1.0" encoding="utf-8"?>
<!-- Generator: Adobe Illustrator 26.4.1, SVG Export Plug-In . SVG Version: 6.00 Build 0)  -->
<svg version="1.1" id="图层_1" xmlns="http://www.w3.org/2000/svg" xmlns:xlink="http://www.w3.org/1999/xlink" x="0px" y="0px"
	 viewBox="0 0 200 200" style="enable-background:new 0 0 200 200;" xml:space="preserve">
<style type="text/css">
	.st0{fill:url(#SVGID_1_);}
	.st1{fill:#EDA915;}
	.st2{fill:#EAEAEA;}
	.st3{fill:#F7F7F7;}
</style>
<linearGradient id="SVGID_1_" gradientUnits="userSpaceOnUse" x1="99.5502" y1="296.7486" x2="99.9453" y2="97.1105" gradientTransform="matrix(1 0 0 1 0 -94)">
	<stop  offset="0" style="stop-color:#72ADE0"/>
	<stop  offset="1" style="stop-color:#106ABD"/>
</linearGradient>
<rect y="0.5" class="st0" width="199.5" height="199.5"/>
<g>
	<path class="st1" d="M91.5,91.2c0,19.7,16,35.7,35.7,35.7c19.7,0,35.7-16,35.7-35.7c0,0,0,0,0,0c0-19.7-16-35.7-35.7-35.7
		S91.5,71.5,91.5,91.2C91.5,91.2,91.5,91.2,91.5,91.2z"/>
	<path class="st1" d="M127.2,45.5c-1.6,0-2.9-1.3-2.9-2.9v-7.2c0-1.6,1.3-2.9,2.9-2.9c1.6,0,2.9,1.3,2.9,2.9v7.2
		C130.1,44.1,128.8,45.5,127.2,45.5z M100.2,54.2c-1.3,1-3.2,0.7-4-0.7L92,47.8c-1-1.3-0.7-3.2,0.7-4c1.3-1,3.2-0.7,4,0.7l4.2,5.8
		C101.9,51.4,101.6,53.2,100.2,54.2L100.2,54.2z M83.6,105.4c0.5,1.5-0.4,3.2-1.8,3.7l-6.8,2.2c-1.5,0.5-3.2-0.4-3.7-1.8
		c-0.5-1.5,0.4-3.2,1.8-3.7l6.8-2.2C81.5,103,83.1,103.8,83.6,105.4z M100.2,128.3c1.3,1,1.5,2.8,0.7,4l-4.2,5.8
		c-1,1.3-2.8,1.5-4,0.7c-1.3-1-1.5-2.8-0.7-4l4.2-5.8C97.2,127.6,99,127.3,100.2,128.3z M127.2,137c1.6,0,2.9,1.3,2.9,2.9v7.2
		c0,1.6-1.3,2.9-2.9,2.9c-1.6,0-2.9-1.3-2.9-2.9v-7.2C124.3,138.3,125.5,137,127.2,137z M154.1,128.3c1.3-1,3.2-0.7,4,0.7l4.2,5.8
		c1,1.3,0.7,3.2-0.7,4c-1.3,1-3.2,0.7-4-0.7l-4.2-5.8C152.5,131.1,152.8,129.2,154.1,128.3z M170.8,105.4c0.5-1.5,2.1-2.4,3.7-1.8
		l6.8,2.2c1.5,0.5,2.4,2.1,1.8,3.7c-0.5,1.5-2.1,2.4-3.7,1.8l-6.8-2.2C171,108.6,170.3,106.9,170.8,105.4z M170.8,77.1
		c-0.5-1.5,0.4-3.2,1.8-3.7l6.8-2.2c1.5-0.5,3.2,0.4,3.7,1.8c0.5,1.5-0.4,3.2-1.8,3.7l-6.8,2.2C172.9,79.4,171.2,78.6,170.8,77.1z
		 M154.1,54.2c-1.3-1-1.5-2.8-0.7-4l4.2-5.8c1-1.3,2.8-1.5,4-0.7c1.3,1,1.5,2.8,0.7,4l-4.2,5.8C157.2,54.8,155.4,55.2,154.1,54.2z"
		/>
	<path class="st2" d="M163.6,135.4c0-17.7-15.2-32.1-33.9-32.1s-33.9,14.3-33.9,32.1v32.1h34.2C148.6,167.2,163.6,153,163.6,135.4
		L163.6,135.4z"/>
	<path class="st3" d="M142.3,133.9c0-10.2-4.6-19.3-11.8-25.6c0.1-1,0.2-1.9,0.2-2.9c0-18.6-15.2-33.7-33.9-33.7
		s-33.9,15.1-33.9,33.7c0,0.3,0,0.7,0.1,1c-4.2-2.1-9-3.3-14-3.3c-17.8,0-32.2,14.4-32.2,32.2c0,17.4,13.9,31.6,31.2,32.1v0.1h62.1
		v-0.1C127.9,166.7,142.3,151.9,142.3,133.9z"/>
</g>
</svg>
