<?xml version="1.0" encoding="utf-8"?>
<!-- Generator: Adobe Illustrator 26.4.1, SVG Export Plug-In . SVG Version: 6.00 Build 0)  -->
<svg version="1.1" id="图层_1" xmlns="http://www.w3.org/2000/svg" xmlns:xlink="http://www.w3.org/1999/xlink" x="0px" y="0px"
	 viewBox="0 0 200 200" style="enable-background:new 0 0 200 200;" xml:space="preserve">
<style type="text/css">
	.st0{fill:#1677FF;}
</style>
<g>
	<path class="st0" d="M150.3,29.1H49.7c-11.4,0-20.7,9.3-20.7,20.7v100.5c0,11.4,9.3,20.7,20.7,20.7h100.5
		c11.4,0,20.7-9.3,20.7-20.7V49.7C170.9,38.3,161.7,29.1,150.3,29.1z M100,48c0,3.2-2.8,5.9-5.9,5.9c-3.2,0-5.9-2.6-5.9-5.9
		C88.2,40.2,100,40.2,100,48z M76.4,48c0,3.2-2.8,5.9-5.9,5.9c-3.2,0-5.9-2.6-5.9-5.9C64.5,40.1,76.4,40.3,76.4,48z M46.8,42.1
		c3.5,0,5.9,2.9,5.9,5.9c0,3.2-2.8,5.9-5.9,5.9c-3.2,0-5.9-2.6-5.9-5.9c0-3.2,2.6-5.9,5.8-5.9C46.7,42.1,46.8,42.1,46.8,42.1z
		 M159.1,150.3c0,4.9-4,8.9-8.9,8.9H49.7c-4.9,0-8.9-4-8.9-8.9V75.9c0-4.9,4-8.9,8.9-8.9h100.5c4.9,0,8.9,4,8.9,8.9V150.3z"/>
	<path class="st0" d="M83,134.7c-2.1-0.3-3.9-1.7-4.7-3.7L65.7,99.5c-1.2-3.1,0.4-6.5,3.4-7.6c3-1.1,6.3,0.3,7.6,3.2l8.7,21.8
		l9.9-13.2c2-2.6,5.7-3.2,8.3-1.2c0.5,0.3,0.9,0.8,1.2,1.2l9.9,13.2l8.7-21.8c1.2-3.1,4.6-4.6,7.6-3.4c3.1,1.2,4.6,4.6,3.4,7.6
		c0,0.1,0,0.1-0.1,0.2L121.7,131c-1.2,3-4.7,4.5-7.7,3.3c-1-0.4-1.9-1.1-2.5-1.9L100,117l-11.5,15.4C87.3,134.1,85.2,135,83,134.7
		L83,134.7z"/>
</g>
</svg>
